<?xml version="1.0" encoding="UTF-8" standalone="no"?>
<!-- Created with Inkscape (http://www.inkscape.org/) -->

<svg
   xmlns:dc="http://purl.org/dc/elements/1.1/"
   xmlns:cc="http://creativecommons.org/ns#"
   xmlns:rdf="http://www.w3.org/1999/02/22-rdf-syntax-ns#"
   xmlns:svg="http://www.w3.org/2000/svg"
   xmlns="http://www.w3.org/2000/svg"
   xmlns:sodipodi="http://sodipodi.sourceforge.net/DTD/sodipodi-0.dtd"
   xmlns:inkscape="http://www.inkscape.org/namespaces/inkscape"
   version="1.0"
   width="45"
   height="45"
   viewBox="0 0 55 55"
   id="svg2"
   xml:space="preserve"
   inkscape:version="0.48.0 r9654"
   sodipodi:docname="original.svg"><metadata
     id="metadata24"><rdf:RDF><cc:Work
         rdf:about=""><dc:format>image/svg+xml</dc:format><dc:type
           rdf:resource="http://purl.org/dc/dcmitype/StillImage" /><dc:title></dc:title></cc:Work></rdf:RDF></metadata><sodipodi:namedview
     pagecolor="#ffffff"
     bordercolor="#666666"
     borderopacity="1"
     objecttolerance="10"
     gridtolerance="10"
     guidetolerance="10"
     inkscape:pageopacity="0"
     inkscape:pageshadow="2"
     inkscape:window-width="1366"
     inkscape:window-height="701"
     id="namedview22"
     showgrid="false"
     inkscape:zoom="6.6666667"
     inkscape:cx="22.5"
     inkscape:cy="22.5"
     inkscape:window-x="0"
     inkscape:window-y="0"
     inkscape:window-maximized="1"
     inkscape:current-layer="svg2" /><defs
     id="defs12">
	
</defs><path
     d="m 36.852226,15.69838 c 0,5.964452 -5.159148,10.799595 -11.523279,10.799595 -6.364131,0 -11.523279,-4.835143 -11.523279,-10.799595 0,-5.9644517 5.159148,-10.7995952 11.523279,-10.7995952 6.364131,0 11.523279,4.8351435 11.523279,10.7995952 l 0,0 z"
     transform="matrix(2.1478261,0,0,2.2917526,-26.902174,-8.4768043)"
     id="path2387"
     style="fill:#00d000;fill-opacity:1;stroke:#00d000;stroke-width:1.92812335;stroke-linecap:round;stroke-miterlimit:4;stroke-opacity:0.94117647;stroke-dasharray:none" /><path
     d=""
     id="path2385"
     style="fill:#00d000;fill-opacity:1;stroke:#00d000;stroke-width:1.5;stroke-linecap:round;stroke-miterlimit:4;stroke-opacity:1;stroke-dasharray:none" /><g
     transform="matrix(0,1.2222222,-1.2222222,0,62.905112,-6.1105186)"
     id="g2937"><path
       d="m 27.567493,45.252146 c -0.46948,0 -0.933016,-0.02903 -1.389761,-0.08296 l 1.178368,1.948634 1.161389,-1.918769 c -0.314968,0.02489 -0.629086,0.05309 -0.949996,0.05309 z"
       id="path3003"
       style="fill:none;stroke:#ffffff;stroke-width:1.20000005;stroke-miterlimit:4;stroke-opacity:1;stroke-dasharray:none" /><path
       d="m 38.317981,14.929279 c -1.837168,0 -3.360217,1.289964 -3.68707,2.992219 1.578232,1.115757 2.934884,2.584076 3.968928,4.320343 1.939893,-0.142684 3.475677,-1.709721 3.475677,-3.641764 0,-2.027442 -1.682656,-3.670798 -3.757535,-3.670798 z"
       id="path3007"
       style="fill:#686868;fill-opacity:1;stroke:#ffffff;stroke-width:2.29999995;stroke-miterlimit:4;stroke-opacity:1;stroke-dasharray:none" /><path
       d="m 38.787461,38.290488 c -1.039138,1.851575 -2.42805,3.426908 -4.072502,4.609029 0.442312,1.546298 1.878767,2.686942 3.603022,2.686942 2.07403,0 3.757535,-1.642527 3.757535,-3.669969 0,-1.870656 -1.437304,-3.397874 -3.288055,-3.626002 z"
       id="path3009"
       style="fill:#686868;fill-opacity:1;stroke:#ffffff;stroke-width:2.29999995;stroke-miterlimit:4;stroke-opacity:1;stroke-dasharray:none" /><path
       d="m 16.340734,38.277215 c -1.912727,0.170889 -3.41625,1.724653 -3.41625,3.639275 0,2.026612 1.680958,3.669969 3.755837,3.669969 1.752271,0 3.212497,-1.177974 3.626793,-2.764091 -1.598607,-1.174655 -2.950165,-2.728419 -3.96638,-4.545153 z"
       id="path3011"
       style="fill:#686868;fill-opacity:1;stroke:#ffffff;stroke-width:2.29999995;stroke-miterlimit:4;stroke-opacity:1;stroke-dasharray:none" /><path
       d="m 20.375881,18.007772 c -0.291196,-1.744563 -1.828678,-3.078493 -3.69556,-3.078493 -2.074879,0 -3.755837,1.643356 -3.755837,3.669968 0,1.97601 1.601155,3.575399 3.603872,3.655037 1.006876,-1.694789 2.319381,-3.139051 3.847525,-4.246512 z"
       id="path3013"
       style="fill:#686868;fill-opacity:1;stroke:#ffffff;stroke-width:2.29999995;stroke-miterlimit:4;stroke-opacity:1;stroke-dasharray:none" /><path
       d="m 27.567493,15.62362 c 1.619832,0 3.164955,0.340948 4.599711,0.935742 0.629086,-0.892605 1.000085,-1.971862 1.000085,-3.138221 0,-3.058584 -2.537567,-5.5389654 -5.668563,-5.5389654 -3.130146,0 -5.667713,2.4803814 -5.667713,5.5389654 0,1.18461 0.383734,2.280457 1.032345,3.180529 1.463622,-0.62134 3.04525,-0.97805 4.704135,-0.97805 z"
       id="path3015"
       style="fill:#686868;fill-opacity:1;stroke:#ffffff;stroke-width:2.29999995;stroke-miterlimit:4;stroke-opacity:1;stroke-dasharray:none" /><g
       transform="matrix(0.8489685,0,0,0.82955893,4.2234061,5.2018707)"
       id="g3017"
       style="fill:#686868;fill-opacity:1;stroke:#ffffff;stroke-width:1.42992032;stroke-miterlimit:4;stroke-opacity:1;stroke-dasharray:none"><path
         d="m 43.102,30.421 c 0,4.7344 -1.6452,9.2798 -4.5706,12.6275 -2.9254,3.3478 -6.8973,5.2305 -11.0344,5.2305 -4.1371,0 -8.109,-1.8827 -11.0344,-5.2305 -2.9254,-3.3477 -4.5706,-7.8931 -4.5706,-12.6275 0,-9.7966 7.0444,-17.858 15.605,-17.858 8.5606,0 15.605,8.0614 15.605,17.858 z"
         id="path3019"
         style="fill:#686868;fill-opacity:1;stroke:#ffffff;stroke-width:1.42992032;stroke-miterlimit:4;stroke-opacity:1;stroke-dasharray:none" /></g><g
       transform="matrix(0.8489685,0,0,0.82955893,4.2234061,5.2018707)"
       id="g3021"
       style="fill:none;stroke:#ffffff;stroke-width:1.42992032;stroke-miterlimit:4;stroke-opacity:1;stroke-dasharray:none"><path
         d="m 25.875,33.75 -1.542,-4.625 3.164,-2.587 3.615,2.626 -1.487,4.669 z"
         id="path3023"
         style="fill:none;stroke:#ffffff;stroke-width:1.42992032;stroke-miterlimit:4;stroke-opacity:1;stroke-dasharray:none" /><path
         d="m 27.501,41.551 c -3.968,-0.16 -5.543,-2.009 -5.543,-2.009 l 3.57,-4.163 4.465,0.168 3.132,4.12 c 0,0 -2.89,1.994 -5.624,1.884 z"
         id="path3025"
         style="fill:none;stroke:#ffffff;stroke-width:1.42992032;stroke-miterlimit:4;stroke-opacity:1;stroke-dasharray:none" /><path
         d="m 18.453,33.843 c -0.849,-2.968 0.172,-6.884 0.172,-6.884 l 4,2.167 1.493,4.629 -3.582,4.233 c 0,-10e-4 -1.465,-1.99 -2.083,-4.145 z"
         id="path3027"
         style="fill:none;stroke:#ffffff;stroke-width:1.42992032;stroke-miterlimit:4;stroke-opacity:1;stroke-dasharray:none" /><path
         d="m 19.458,25.125 c 0,0 0.5,-1.958 3.039,-3.822 2.237,-1.643 4.465,-1.72 4.465,-1.72 l -0.037,4.981 -3.521,2.75 -3.946,-2.189 z"
         id="path3029"
         style="fill:none;stroke:#ffffff;stroke-width:1.42992032;stroke-miterlimit:4;stroke-opacity:1;stroke-dasharray:none" /><path
         d="M 32.084,27.834 28.625,24.959 29,19.75 c 0,0 1.834,-0.042 3.959,1.667 2.228,1.791 3.362,4.983 3.362,4.983 l -4.237,1.434 z"
         id="path3031"
         style="fill:none;stroke:#ffffff;stroke-width:1.42992032;stroke-miterlimit:4;stroke-opacity:1;stroke-dasharray:none" /><path
         d="m 31.292,34.042 1.313,-4.464 4.187,-1.536 c 0,0 0.677,2.663 -0.042,5.667 -0.54,2.256 -2.084,4.361 -2.084,4.361 l -3.374,-4.028 z"
         id="path3033"
         style="fill:none;stroke:#ffffff;stroke-width:1.42992032;stroke-miterlimit:4;stroke-opacity:1;stroke-dasharray:none" /></g></g><path
     style="fill:#ffff00"
     d="M 19.185,42.408748 C 16.630138,41.936276 14.581005,41.207631 12.579177,40.059803 11.013299,39.161945 9.813437,38.28 10.157803,38.28 c 0.571083,0 1.9436,-0.666397 2.61407,-1.269207 0.399511,-0.359194 0.858401,-0.928542 1.019755,-1.265216 0.161355,-0.336674 0.360872,-0.612876 0.443372,-0.613781 0.0825,-9e-4 0.513561,0.136536 0.957913,0.305425 2.317025,0.880648 5.495398,1.237682 7.995949,0.898203 1.553695,-0.210932 3.598076,-0.760021 4.452319,-1.195823 l 0.559474,-0.285423 0.349314,0.735758 c 0.192123,0.404666 0.664515,1.03059 1.04976,1.390941 2.369721,2.216597 6.222066,1.472946 7.665783,-1.479789 0.475947,-0.973424 0.585234,-2.740785 0.23334,-3.773537 -0.325929,-0.95655 -0.917116,-1.779034 -1.718635,-2.39104 -0.619398,-0.472946 -0.638352,-0.687327 -0.03208,-0.36286 0.147629,0.07901 0.711732,0.214471 1.253564,0.301029 1.251771,0.199972 2.668627,0.0099 3.80514,-0.510384 0.466863,-0.213737 0.881365,-0.35609 0.921117,-0.316339 0.10399,0.10399 -0.530658,1.780743 -1.138161,3.007043 -1.346742,2.718522 -3.780362,5.613179 -6.159042,7.325842 -2.500958,1.800704 -5.721003,3.154637 -8.621423,3.625051 -1.668492,0.27061 -5.168306,0.272118 -6.624331,0.0029 z"
     id="path2999"
     inkscape:connector-curvature="0"
     transform="scale(1.2222222,1.2222222)" /><path
     style="fill:#ffff00"
     d="M 20.685,44.331546 C 17.718566,43.978836 15.775116,43.469272 13.513893,42.451312 11.786664,41.673747 10.519853,40.904175 8.9850001,39.700063 7.1793171,38.283482 5.5388199,36.51803 6.985208,37.54795 7.5203618,37.929013 8.624615,38.28 9.2883373,38.28 c 0.3429682,0 0.7765727,0.219093 1.5136607,0.764826 1.345933,0.996517 4.278775,2.423932 5.979275,2.910115 10.369075,2.964579 21.211286,-2.558426 24.817142,-12.641815 0.323429,-0.904433 0.58184,-1.328657 1.17966,-1.936614 0.421031,-0.428168 0.901221,-1.035668 1.067088,-1.35 0.41693,-0.790111 0.401555,-0.331051 -0.05155,1.539154 -1.749148,7.219724 -6.991819,13.059422 -13.990857,15.584115 -2.695071,0.972165 -6.611418,1.479768 -9.11776,1.181765 l 0,0 z"
     id="path3001"
     inkscape:connector-curvature="0"
     transform="scale(1.2222222,1.2222222)" /><path
     style="fill:#ffff00"
     d="M 4.3389476,31.305 C 1.9989698,26.148377 1.6924259,21.024814 3.42054,15.954774 c 0.5357198,-1.571726 1.4205938,-3.414251 1.4322452,-2.982287 0.015007,0.556383 0.7692047,1.738368 1.5848963,2.483864 L 7.2843626,16.23017 6.98042,16.72196 c -0.3806901,0.615969 -1.2204199,3.098236 -1.2204199,3.607597 0,0.316845 -0.2127606,0.50882 -1.275,1.150443 -0.70125,0.423575 -1.275,0.826691 -1.275,0.895812 0,0.06912 0.5379156,0.441035 1.195368,0.826472 1.0809921,0.633743 1.2044041,0.753514 1.2898072,1.251756 0.210471,1.22789 0.5673719,2.407021 1.0357358,3.421868 l 0.4942366,1.070907 -0.6506679,0.458634 C 5.8885643,29.888926 5.2576697,30.759732 4.938572,31.663444 L 4.7473505,32.205 l -0.4084029,-0.9 0,0 z"
     id="path3004"
     inkscape:connector-curvature="0"
     transform="scale(1.2222222,1.2222222)" /><path
     style="fill:#ffff00"
     d="M 4.819187,35.436801 C 4.5173197,35.032461 3.9321652,34.111861 3.5188436,33.391023 1.5948342,30.035523 0.64664801,26.481648 0.63723653,22.590537 0.62831289,18.901121 1.29024,16.04197 2.9150707,12.751581 3.525529,11.515363 5.1418108,8.9618107 5.2471481,9.0671481 5.2778014,9.0978014 5.1694831,9.4739571 5.0064407,9.9030497 4.8134608,10.410932 4.7100001,11.05061 4.7100001,11.735887 c 0,0.870874 -0.077496,1.206187 -0.4487375,1.941612 C 1.5900363,18.969168 1.589428,26.036331 4.2597386,31.38 c 0.3255524,0.651475 0.4261032,1.09579 0.4780583,2.112444 0.048314,0.945402 0.1548445,1.458292 0.4009815,1.930516 0.1843536,0.353691 0.3113539,0.666908 0.2822232,0.696038 -0.029131,0.02913 -0.2999472,-0.277857 -0.6018146,-0.682197 l 0,0 z"
     id="path3006"
     inkscape:connector-curvature="0"
     transform="scale(1.2222222,1.2222222)" /><path
     style="fill:#ffff00"
     d="M 41.12914,16.365789 C 39.763971,15.663035 37.82308,15.446379 36.430189,15.841259 36.020335,15.957451 35.51625,16.10015 35.31,16.158368 l -0.375,0.10585 0.375,-0.264504 c 0.800998,-0.56498 1.54236,-1.376523 1.913565,-2.094714 0.556347,-1.076392 0.64029,-2.81922 0.192913,-4.0052447 C 36.457674,7.3578994 33.65175,6.113831 31.062519,7.0825867 30.010686,7.4761279 28.873495,8.5542929 28.467799,9.5426297 28.260724,10.047098 28.124752,10.205296 27.96,10.133436 25.799794,9.1912196 23.574908,8.7219136 21.209561,8.7095338 18.787129,8.6968552 17.042842,8.9814572 15.129811,9.7015199 L 14.177132,10.060108 13.859338,9.4036319 C 13.222949,8.0890279 11.881682,7.0489469 10.547703,6.8356351 L 9.9078754,6.7333225 10.346438,6.3727429 c 0.826687,-0.6796902 3.426997,-2.1454004 4.63278,-2.6113464 7.622251,-2.94543998 15.945587,-1.2554045 21.700445,4.4062284 1.52579,1.5010737 2.74394,3.1539951 3.689324,5.0060861 0.747301,1.464029 1.489098,3.309643 1.374921,3.420846 -0.0324,0.03156 -0.309045,-0.07139 -0.614768,-0.228768 l 0,0 z"
     id="path3008"
     inkscape:connector-curvature="0"
     transform="scale(1.2222222,1.2222222)" /><path
     style="fill:#ffff00"
     d="M 43.794654,18.887885 C 43.643637,18.622299 43.165572,18.03375 42.732288,17.58 42.170707,16.991895 41.869654,16.518105 41.683854,15.93 41.300787,14.717498 40.236523,12.564495 39.385285,11.28 36.730372,7.2738092 32.296918,4.0918312 27.68436,2.882015 25.247902,2.242963 21.772113,2.0849065 19.212596,2.496774 16.356857,2.9563079 13.166365,4.2647174 10.826833,5.9357461 9.9603964,6.554605 9.5956541,6.7244204 9.0600001,6.7583423 8.6887501,6.7818529 8.0203465,6.9660652 7.5746587,7.167703 7.1289709,7.3693408 6.727372,7.4973719 6.6822167,7.4522167 6.6370613,7.4070613 7.0616438,6.9504649 7.6257333,6.437558 10.992982,3.3758368 15.009678,1.4683202 19.513733,0.79198431 c 1.386672,-0.20822481 4.555862,-0.20822481 5.942534,0 2.550779,0.38302899 4.763016,1.09436259 7.038474,2.26318559 5.028921,2.5831799 8.850507,6.9654081 10.674668,12.2406811 0.511335,1.478724 1.087732,3.887009 0.960714,4.014026 -0.03349,0.03349 -0.184452,-0.156405 -0.335469,-0.421992 z"
     id="path3010"
     inkscape:connector-curvature="0"
     transform="scale(1.2222222,1.2222222)" /><path
     style="fill:#778899"
     d="M 18.435,34.919907 C 13.037492,33.871009 9.0237301,30.623416 7.475959,26.052786 6.9278713,24.434262 6.8011805,21.914034 7.1811631,20.188486 8.3679329,14.799214 13.479204,10.646908 19.5975,10.101673 28.13641,9.3407236 35.59159,15.637785 35.110714,23.205 c -0.136794,2.152621 -0.698389,3.773031 -1.975488,5.7 -1.850206,2.791708 -4.869435,4.861518 -8.440164,5.786086 -1.524325,0.394694 -4.791884,0.514131 -6.260062,0.228821 l 0,0 z m 4.476277,-3.760029 c 1.927958,-0.343634 4.452308,-1.708847 5.727693,-3.097637 1.112514,-1.211436 1.66314,-2.373355 1.857542,-3.919741 0.05964,-0.474375 0.103941,-0.870397 0.09846,-0.880048 -0.0055,-0.0097 -0.988719,-0.10076 -2.184969,-0.202464 l -2.175,-0.184915 2.278069,-0.02254 2.27807,-0.02254 -0.07637,-0.5625 C 30.388221,19.862493 29.695627,18.386371 28.182558,16.870611 27.126193,15.812369 25.342792,14.731042 25.08931,14.995087 24.938106,15.152591 22.86,19.017556 22.86,19.141267 c 0,0.12608 2.18587,3.024604 2.572585,3.411318 0.25872,0.25872 0.259725,0.277728 0.01491,0.282053 -0.144375,0.0026 -0.49122,0.308206 -0.770767,0.679232 -0.279548,0.371027 -0.54075,0.642112 -0.580451,0.602412 -0.0397,-0.0397 0.175988,-0.410257 0.479306,-0.823459 l 0.551487,-0.751277 -1.335165,-1.66288 -1.335166,-1.662881 1.196576,-2.252944 C 24.323994,15.700068 24.79168,14.656024 24.717444,14.58732 24.459505,14.348604 21.865136,13.979419 20.46,13.981475 c -1.598068,0.0023 -2.558451,0.213622 -3.966896,0.872713 C 15.609157,15.267837 13.71,16.460251 13.71,16.601602 c 0,0.03323 1.010278,0.937446 2.245062,2.009363 1.550978,1.346405 2.165434,1.965321 1.9875,2.001926 -0.160073,0.03293 -0.967262,-0.570288 -2.132562,-1.593679 -1.03125,-0.905665 -2.000566,-1.751863 -2.154035,-1.880438 -0.25946,-0.217375 -0.314847,-0.192395 -0.789553,0.356093 -1.703346,1.968092 -2.181865,5.41745 -1.125094,8.110133 0.475109,1.210591 1.274154,2.625868 1.481458,2.623975 0.06172,-6e-4 1.075101,-0.748354 2.251951,-1.661758 1.176849,-0.913403 2.200332,-1.638567 2.274405,-1.611476 0.07407,0.02709 -0.842901,0.884729 -2.037722,1.905858 l -2.1724,1.856598 0.872995,0.58916 c 2.738025,1.847812 5.341702,2.415316 8.499272,1.852521 z"
     id="path3026"
     inkscape:connector-curvature="0"
     transform="scale(1.2222222,1.2222222)" /><path
     style="fill:#778899"
     d="M 26.060692,21.1425 C 25.894812,20.956875 25.456439,20.4 25.08653,19.905 l -0.67256,-0.9 0.61992,-1.115635 c 0.340957,-0.613599 0.6968,-1.141262 0.790764,-1.172583 0.09396,-0.03132 0.669294,0.436964 1.278511,1.040635 1.103359,1.093315 1.797468,2.217072 1.998206,3.235083 l 0.09613,0.4875 -1.417603,0 c -1.280743,0 -1.44672,-0.03258 -1.719205,-0.3375 z"
     id="path3028"
     inkscape:connector-curvature="0"
     transform="scale(1.2222222,1.2222222)" /><path
     style="fill:#778899"
     d="m 17.181381,17.855543 -1.253619,-1.074935 0.353619,-0.271122 c 0.19449,-0.149117 0.792369,-0.449815 1.328619,-0.668218 1.081893,-0.440633 2.938104,-0.628533 4.402111,-0.445618 l 0.840827,0.105055 -0.591009,1.175459 -0.59101,1.175459 -1.467959,0.486215 c -0.807378,0.267418 -1.53546,0.510161 -1.61796,0.539427 -0.0825,0.02927 -0.714129,-0.430508 -1.403619,-1.021722 z"
     id="path3030"
     inkscape:connector-curvature="0"
     transform="scale(1.2222222,1.2222222)" /><path
     style="fill:#778899"
     d="m 13.282504,25.724112 c -0.583895,-1.144529 -0.816244,-2.274274 -0.732447,-3.561348 0.07025,-1.079032 0.448231,-2.446825 0.849255,-3.073206 0.140212,-0.219004 0.280272,-0.118171 2.308995,1.662292 l 0.573306,0.50315 -0.108031,1.548844 -0.108031,1.548843 -1.065275,0.838374 c -0.585902,0.461105 -1.145725,0.899757 -1.244051,0.974782 -0.12439,0.09491 -0.268501,-0.03947 -0.473721,-0.441731 l 0,0 z"
     id="path3032"
     inkscape:connector-curvature="0"
     transform="scale(1.2222222,1.2222222)" /><path
     style="fill:#778899"
     d="m 19.26,29.926443 c -0.62216,-0.10403 -2.133767,-0.638968 -2.820632,-0.998185 l -0.645633,-0.337653 1.209224,-1.020444 1.209224,-1.020444 1.386408,0.415512 c 0.762525,0.228532 1.451277,0.472339 1.530561,0.541793 0.07928,0.06946 0.321506,0.62875 0.538273,1.242878 0.324214,0.918541 0.356333,1.131097 0.18108,1.198348 -0.236798,0.09087 -2.003666,0.07598 -2.588505,-0.02181 z"
     id="path3034"
     inkscape:connector-curvature="0"
     transform="scale(1.2222222,1.2222222)" /><path
     style="fill:#778899"
     d="M 24.733893,28.948969 C 24.694482,28.842286 24.500112,28.27476 24.301959,27.6878 l -0.360278,-1.0672 0.96251,-1.1828 0.96251,-1.1828 1.084149,0.05299 c 0.596283,0.02914 1.330943,0.09664 1.63258,0.15 l 0.54843,0.09701 -0.416943,0.916052 c -0.501946,1.102809 -1.281625,1.997142 -2.399514,2.752369 -1.249089,0.843865 -1.495961,0.957122 -1.58151,0.725548 z"
     id="path3036"
     inkscape:connector-curvature="0"
     transform="scale(1.2222222,1.2222222)" /><path
     style="fill:#778899"
     d="m 20.235,24.343525 -1.2,-0.412965 -0.04355,-1.135895 -0.04355,-1.135894 1.393921,-0.464386 C 21.108477,20.938973 21.776243,20.73 21.825743,20.73 c 0.110297,0 1.484257,1.735175 1.484257,1.874468 0,0.263741 -1.453113,2.16513 -1.65,2.159013 -0.12375,-0.0038 -0.765,-0.192825 -1.425,-0.419956 l 0,0 z"
     id="path3038"
     inkscape:connector-curvature="0"
     transform="scale(1.2222222,1.2222222)" /><path
     style="fill:#778899"
     d="M 31.92016,35.594185 C 31.350865,35.335642 30.66,34.605069 30.66,34.261596 c 0,-0.0809 0.185625,-0.266776 0.4125,-0.413054 0.226875,-0.146279 0.993099,-0.831446 1.702719,-1.522594 l 1.29022,-1.256632 0.538804,0.596392 c 0.923986,1.022742 0.926882,2.302637 0.0075,3.320269 -0.484696,0.536501 -1.234099,0.896639 -1.851755,0.889892 -0.12375,-0.0014 -0.501678,-0.12811 -0.83984,-0.281684 l 0,0 z"
     id="path3040"
     inkscape:connector-curvature="0"
     transform="scale(1.2222222,1.2222222)" /><path
     style="fill:#778899"
     d="M 36.830305,26.718965 C 36.539759,26.602631 36.492142,26.502619 36.567016,26.165973 36.938929,24.4938 37.008243,23.922064 37.007819,22.53 c -2.93e-4,-0.964129 -0.106469,-2.060183 -0.273751,-2.825942 -0.307122,-1.405892 -0.29429,-1.43514 0.703592,-1.603731 1.344738,-0.227192 3.160145,0.563252 4.020102,1.750388 1.654335,2.283743 0.832307,5.467644 -1.722762,6.672645 -0.79921,0.376917 -2.213931,0.472186 -2.904695,0.195605 z"
     id="path3042"
     inkscape:connector-curvature="0"
     transform="scale(1.2222222,1.2222222)" /><path
     style="fill:#778899"
     d="m 32.835,12.845572 c -0.5775,-0.582686 -1.335677,-1.266356 -1.684838,-1.519268 l -0.634837,-0.45984 0.334837,-0.49194 c 0.764105,-1.1226136 1.961986,-1.4801145 3.068298,-0.9157163 1.412822,0.7207683 1.781268,2.5538873 0.771367,3.8377683 -0.572319,0.727587 -0.723049,0.690936 -1.854827,-0.451004 z"
     id="path3044"
     inkscape:connector-curvature="0"
     transform="scale(1.2222222,1.2222222)" /><path
     style="fill:#778899"
     d="M 7.8172554,13.390978 C 7.3185987,12.798358 7.0553957,11.974601 7.1595762,11.332612 7.4192715,9.7322979 9.0240559,8.7849116 10.459322,9.3846039 10.918622,9.5765118 11.76,10.409024 11.76,10.671576 c 0,0.06521 -0.286875,0.307024 -0.6375,0.537371 -0.350625,0.230347 -1.1519107,0.917542 -1.7806351,1.5271 l -1.1431351,1.108287 -0.3814744,-0.453356 0,0 z"
     id="path3046"
     inkscape:connector-curvature="0"
     transform="scale(1.2222222,1.2222222)" /><path
     style="fill:#778899"
     d="M 8.8152305,35.716777 C 8.5568573,35.641886 8.1050465,35.314501 7.8112065,34.989255 6.9265973,34.010099 6.8908683,32.710857 7.7225035,31.763676 l 0.4477063,-0.509909 0.6898749,0.737532 c 0.3794312,0.405643 1.1857973,1.117378 1.7919243,1.581634 l 1.102049,0.844101 -0.319689,0.448962 c -0.336525,0.472605 -1.341531,1.014505 -1.8493689,0.997181 -0.165,-0.0056 -0.5113964,-0.07151 -0.7697696,-0.1464 z"
     id="path3048"
     inkscape:connector-curvature="0"
     transform="scale(1.2222222,1.2222222)" /></svg>