<?xml version="1.0" encoding="UTF-8" standalone="no"?>
<!-- Created with Inkscape (http://www.inkscape.org/) -->

<svg
   xmlns:dc="http://purl.org/dc/elements/1.1/"
   xmlns:cc="http://creativecommons.org/ns#"
   xmlns:rdf="http://www.w3.org/1999/02/22-rdf-syntax-ns#"
   xmlns:svg="http://www.w3.org/2000/svg"
   xmlns="http://www.w3.org/2000/svg"
   xmlns:sodipodi="http://sodipodi.sourceforge.net/DTD/sodipodi-0.dtd"
   xmlns:inkscape="http://www.inkscape.org/namespaces/inkscape"
   version="1.0"
   width="45"
   height="45"
   viewBox="0 0 55 55"
   id="svg2"
   xml:space="preserve"
   inkscape:version="0.48.0 r9654"
   sodipodi:docname="contour.svg"><metadata
     id="metadata24"><rdf:RDF><cc:Work
         rdf:about=""><dc:format>image/svg+xml</dc:format><dc:type
           rdf:resource="http://purl.org/dc/dcmitype/StillImage" /><dc:title /></cc:Work></rdf:RDF></metadata><sodipodi:namedview
     pagecolor="#ffffff"
     bordercolor="#666666"
     borderopacity="1"
     objecttolerance="10"
     gridtolerance="10"
     guidetolerance="10"
     inkscape:pageopacity="0"
     inkscape:pageshadow="2"
     inkscape:window-width="1366"
     inkscape:window-height="701"
     id="namedview22"
     showgrid="false"
     inkscape:zoom="6.6666667"
     inkscape:cx="22.5"
     inkscape:cy="34.5"
     inkscape:window-x="0"
     inkscape:window-y="0"
     inkscape:window-maximized="1"
     inkscape:current-layer="svg2" /><defs
     id="defs12">
	
</defs><path
     d=""
     id="path2385"
     style="fill:#00d000;fill-opacity:1;stroke:#00d000;stroke-width:1.5;stroke-linecap:round;stroke-miterlimit:4;stroke-opacity:1;stroke-dasharray:none" /><path
     style="fill:#000000"
     d=""
     id="path3234"
     inkscape:connector-curvature="0"
     transform="scale(1.2222222,1.2222222)" /><path
     style="fill:#000000"
     d=""
     id="path3242"
     inkscape:connector-curvature="0"
     transform="scale(1.2222222,1.2222222)" /><path
     style="fill:#000000"
     d=""
     id="path3244"
     inkscape:connector-curvature="0"
     transform="scale(1.2222222,1.2222222)" /><path
     style="fill:#ffffff"
     d=""
     id="path3256"
     inkscape:connector-curvature="0"
     transform="scale(1.2222222,1.2222222)" /><path
     style="fill:#ffffff"
     d=""
     id="path3038"
     inkscape:connector-curvature="0"
     transform="scale(1.2222222,1.2222222)" /><path
     d="m 52.616666,27.5 c 0,13.669047 -11.080953,24.75 -24.75,24.75 C 14.19762,52.25 3.1166668,41.169047 3.1166668,27.5 c 0,-13.669047 11.0809532,-24.7500003 24.7499992,-24.7500003 13.669047,0 24.75,11.0809533 24.75,24.7500003 l 0,0 z"
     id="path2387"
     style="fill:#00d000;fill-opacity:1;stroke:#00d000;stroke-width:4.27777815;stroke-linecap:round;stroke-miterlimit:4;stroke-opacity:0.94117647;stroke-dasharray:none"
     inkscape:connector-curvature="0" /><g
     transform="matrix(1.0000763,0.02983471,-0.01559181,0.81866712,1.6018916,3.1607662)"
     id="g2937"><path
       d="m 27.567493,45.252146 c -0.46948,0 -0.933016,-0.02903 -1.389761,-0.08296 l 1.178368,1.948634 1.161389,-1.918769 c -0.314968,0.02489 -0.629086,0.05309 -0.949996,0.05309 z"
       id="path3003"
       style="fill:none;stroke:#ffffff;stroke-width:1.20000005;stroke-miterlimit:4;stroke-opacity:1;stroke-dasharray:none"
       inkscape:connector-curvature="0" /><path
       d="m 38.317981,14.929279 c -1.837168,0 -3.360217,1.289964 -3.68707,2.992219 1.578232,1.115757 2.934884,2.584076 3.968928,4.320343 1.939893,-0.142684 3.475677,-1.709721 3.475677,-3.641764 0,-2.027442 -1.682656,-3.670798 -3.757535,-3.670798 z"
       id="path3007"
       style="fill:#686868;fill-opacity:1;stroke:#ffffff;stroke-width:2.29999995;stroke-miterlimit:4;stroke-opacity:1;stroke-dasharray:none"
       inkscape:connector-curvature="0" /><path
       d="m 38.787461,38.290488 c -1.039138,1.851575 -2.42805,3.426908 -4.072502,4.609029 0.442312,1.546298 1.878767,2.686942 3.603022,2.686942 2.07403,0 3.757535,-1.642527 3.757535,-3.669969 0,-1.870656 -1.437304,-3.397874 -3.288055,-3.626002 z"
       id="path3009"
       style="fill:#686868;fill-opacity:1;stroke:#ffffff;stroke-width:2.29999995;stroke-miterlimit:4;stroke-opacity:1;stroke-dasharray:none"
       inkscape:connector-curvature="0" /><path
       d="m 16.340734,38.277215 c -1.912727,0.170889 -3.41625,1.724653 -3.41625,3.639275 0,2.026612 1.680958,3.669969 3.755837,3.669969 1.752271,0 3.212497,-1.177974 3.626793,-2.764091 -1.598607,-1.174655 -2.950165,-2.728419 -3.96638,-4.545153 z"
       id="path3011"
       style="fill:#686868;fill-opacity:1;stroke:#ffffff;stroke-width:2.29999995;stroke-miterlimit:4;stroke-opacity:1;stroke-dasharray:none"
       inkscape:connector-curvature="0" /><path
       d="m 20.375881,18.007772 c -0.291196,-1.744563 -1.828678,-3.078493 -3.69556,-3.078493 -2.074879,0 -3.755837,1.643356 -3.755837,3.669968 0,1.97601 1.601155,3.575399 3.603872,3.655037 1.006876,-1.694789 2.319381,-3.139051 3.847525,-4.246512 z"
       id="path3013"
       style="fill:#686868;fill-opacity:1;stroke:#ffffff;stroke-width:2.29999995;stroke-miterlimit:4;stroke-opacity:1;stroke-dasharray:none"
       inkscape:connector-curvature="0" /><path
       d="m 27.567493,15.62362 c 1.619832,0 3.164955,0.340948 4.599711,0.935742 0.629086,-0.892605 1.000085,-1.971862 1.000085,-3.138221 0,-3.058584 -2.537567,-5.5389654 -5.668563,-5.5389654 -3.130146,0 -5.667713,2.4803814 -5.667713,5.5389654 0,1.18461 0.383734,2.280457 1.032345,3.180529 1.463622,-0.62134 3.04525,-0.97805 4.704135,-0.97805 z"
       id="path3015"
       style="fill:#686868;fill-opacity:1;stroke:#ffffff;stroke-width:2.29999995;stroke-miterlimit:4;stroke-opacity:1;stroke-dasharray:none"
       inkscape:connector-curvature="0" /><g
       transform="matrix(0.8489685,0,0,0.82955893,4.2234061,5.2018707)"
       id="g3017"
       style="fill:#686868;fill-opacity:1;stroke:#ffffff;stroke-width:1.42992032;stroke-miterlimit:4;stroke-opacity:1;stroke-dasharray:none"><path
         d="m 43.102,30.421 c 0,4.7344 -1.6452,9.2798 -4.5706,12.6275 -2.9254,3.3478 -6.8973,5.2305 -11.0344,5.2305 -4.1371,0 -8.109,-1.8827 -11.0344,-5.2305 -2.9254,-3.3477 -4.5706,-7.8931 -4.5706,-12.6275 0,-9.7966 7.0444,-17.858 15.605,-17.858 8.5606,0 15.605,8.0614 15.605,17.858 z"
         id="path3019"
         style="fill:#686868;fill-opacity:1;stroke:#ffffff;stroke-width:1.42992032;stroke-miterlimit:4;stroke-opacity:1;stroke-dasharray:none"
         inkscape:connector-curvature="0" /></g><g
       transform="matrix(0.8489685,0,0,0.82955893,4.2234061,5.2018707)"
       id="g3021"
       style="fill:none;stroke:#ffffff;stroke-width:1.42992032;stroke-miterlimit:4;stroke-opacity:1;stroke-dasharray:none"><path
         d="m 25.875,33.75 -1.542,-4.625 3.164,-2.587 3.615,2.626 -1.487,4.669 z"
         id="path3023"
         style="fill:none;stroke:#ffffff;stroke-width:1.42992032;stroke-miterlimit:4;stroke-opacity:1;stroke-dasharray:none"
         inkscape:connector-curvature="0" /><path
         d="m 27.501,41.551 c -3.968,-0.16 -5.543,-2.009 -5.543,-2.009 l 3.57,-4.163 4.465,0.168 3.132,4.12 c 0,0 -2.89,1.994 -5.624,1.884 z"
         id="path3025"
         style="fill:none;stroke:#ffffff;stroke-width:1.42992032;stroke-miterlimit:4;stroke-opacity:1;stroke-dasharray:none"
         inkscape:connector-curvature="0" /><path
         d="m 18.453,33.843 c -0.849,-2.968 0.172,-6.884 0.172,-6.884 l 4,2.167 1.493,4.629 -3.582,4.233 c 0,-10e-4 -1.465,-1.99 -2.083,-4.145 z"
         id="path3027"
         style="fill:none;stroke:#ffffff;stroke-width:1.42992032;stroke-miterlimit:4;stroke-opacity:1;stroke-dasharray:none"
         inkscape:connector-curvature="0" /><path
         d="m 19.458,25.125 c 0,0 0.5,-1.958 3.039,-3.822 2.237,-1.643 4.465,-1.72 4.465,-1.72 l -0.037,4.981 -3.521,2.75 -3.946,-2.189 z"
         id="path3029"
         style="fill:none;stroke:#ffffff;stroke-width:1.42992032;stroke-miterlimit:4;stroke-opacity:1;stroke-dasharray:none"
         inkscape:connector-curvature="0" /><path
         d="M 32.084,27.834 28.625,24.959 29,19.75 c 0,0 1.834,-0.042 3.959,1.667 2.228,1.791 3.362,4.983 3.362,4.983 l -4.237,1.434 z"
         id="path3031"
         style="fill:none;stroke:#ffffff;stroke-width:1.42992032;stroke-miterlimit:4;stroke-opacity:1;stroke-dasharray:none"
         inkscape:connector-curvature="0" /><path
         d="m 31.292,34.042 1.313,-4.464 4.187,-1.536 c 0,0 0.677,2.663 -0.042,5.667 -0.54,2.256 -2.084,4.361 -2.084,4.361 l -3.374,-4.028 z"
         id="path3033"
         style="fill:none;stroke:#ffffff;stroke-width:1.42992032;stroke-miterlimit:4;stroke-opacity:1;stroke-dasharray:none"
         inkscape:connector-curvature="0" /></g></g><path
     style="fill:#000000"
     d="m 27.008361,40.215492 c -2.871788,-0.438968 -6.013658,-2.012765 -7.761706,-3.887918 -1.120526,-1.202005 -2.215297,-3.115522 -2.704648,-4.727375 -2.050594,-6.754373 3.532564,-13.730784 11.303808,-14.124617 6.235783,-0.31602 12.084094,3.96158 13.24389,9.686907 1.318563,6.509063 -4.271342,12.861844 -11.55973,13.137332 -0.868653,0.03283 -2.003379,-0.0051 -2.521614,-0.08433 z m 6.057799,-4.036101 c 0.709955,-0.302087 1.287145,-0.621924 1.282643,-0.71075 -0.0045,-0.08883 -0.256722,-0.382081 -0.560492,-0.65168 -0.303768,-0.2696 -0.557434,-0.591374 -0.563702,-0.715053 -0.0063,-0.123675 0.339998,0.09694 0.769481,0.490264 l 0.780879,0.715138 0.788825,-1.027191 c 0.433856,-0.564956 1.022684,-1.535455 1.308511,-2.156665 0.468216,-1.01761 0.508641,-1.347426 0.408163,-3.330098 -0.0991,-1.955485 -0.179746,-2.320049 -0.72393,-3.272724 -0.824688,-1.443732 -2.238123,-2.921281 -3.401029,-3.55531 -0.94333,-0.51431 -3.328727,-1.161054 -3.509677,-0.951565 -0.0512,0.05928 -0.217552,1.034821 -0.369667,2.167873 l -0.276573,2.060094 0.0074,-2.277346 0.0074,-2.277344 -0.706238,0.151946 c -0.388429,0.08357 -1.175078,0.239282 -1.748106,0.346039 -2.05988,0.383759 -4.504484,2.062674 -5.139011,3.52939 -0.168044,0.388434 -0.425489,0.811606 -0.572101,0.940381 -0.453412,0.398249 -0.830344,2.996913 -0.644919,4.446237 0.411189,3.213957 3.219061,6.114874 6.619921,6.839283 1.302402,0.277422 4.805452,-0.149602 6.242145,-0.76091 l 0,0 z"
     id="path3216"
     inkscape:connector-curvature="0" /><path
     style="fill:#000000"
     d="m 16.517589,39.574702 c -1.631148,-0.654925 -1.929817,-2.039081 -0.61678,-2.858409 l 0.769656,-0.48026 1.424378,1.472208 1.424378,1.472208 -0.546494,0.293527 c -0.715742,0.384435 -1.652787,0.422879 -2.455138,0.100722 z"
     id="path3218"
     inkscape:connector-curvature="0" /><path
     style="fill:#000000"
     d="m 16.573251,20.266081 c -1.412036,-0.802827 -1.551983,-1.805163 -0.37256,-2.668386 0.811073,-0.593628 2.461968,-0.612653 3.39676,-0.03915 l 0.628377,0.385519 -0.475453,0.365202 c -0.261499,0.200865 -0.941493,0.803959 -1.511097,1.340214 l -1.035645,0.975009 -0.630382,-0.358411 0,0 z"
     id="path3220"
     inkscape:connector-curvature="0" /><path
     style="fill:#000000"
     d="M 31.884891,15.992686 C 31.207987,15.785258 29.9787,15.730916 27.761426,15.810397 l -3.159051,0.113246 -0.107814,-0.874983 c -0.215543,-1.74947 1.539496,-3.213378 4.00826,-3.343346 2.997469,-0.157815 5.347106,1.867707 4.766343,4.10884 -0.149183,0.575688 -0.106277,0.570155 -1.384276,0.178545 z"
     id="path3222"
     inkscape:connector-curvature="0" /><path
     style="fill:#000000"
     d="m 38.951868,19.853821 c -1.486417,-1.515 -1.476562,-1.75011 0.08444,-2.014789 2.491501,-0.42245 4.264768,1.895889 2.29526,3.000787 -0.384986,0.215979 -0.780953,0.385155 -0.879924,0.375951 -0.09896,-0.0093 -0.773873,-0.622082 -1.49978,-1.361949 z"
     id="path3224"
     inkscape:connector-curvature="0" /><path
     style="fill:#000000"
     d="m 31.584264,25.730643 -1.15025,-0.782242 0.07382,-1.106878 c 0.0406,-0.608783 0.131708,-1.178819 0.202467,-1.266745 0.253492,-0.31499 2.307992,0.839919 3.344067,1.87982 0.580741,0.582886 1.060023,1.141319 1.065073,1.240961 0.0122,0.240722 -0.367858,0.403455 -1.470759,0.629754 -0.829436,0.170189 -1.020763,0.115082 -2.064412,-0.59467 l 0,0 z"
     id="path3226"
     inkscape:connector-curvature="0" /><path
     style="fill:#000000"
     d="m 24.23892,25.432149 c -1.366984,-0.633345 -1.320063,-0.5778 -0.920498,-1.089718 0.455064,-0.58302 2.468093,-1.637 3.602826,-1.886362 0.892246,-0.196075 0.913511,-0.187276 0.80786,0.334258 -0.05968,0.294599 -0.09607,0.8066 -0.08087,1.137784 0.02351,0.511226 -0.15039,0.707976 -1.151402,1.303023 l -1.179034,0.700875 -1.078877,-0.499861 0,0 z"
     id="path3228"
     inkscape:connector-curvature="0" /><path
     style="fill:#000000"
     d="m 21.978718,31.528091 c -0.502488,-1.005842 -0.596336,-1.425293 -0.557995,-2.493955 0.02535,-0.706608 0.101603,-1.390544 0.169447,-1.519861 0.07822,-0.149122 0.552494,-0.04183 1.296667,0.293426 1.091837,0.49184 1.20631,0.615406 1.64842,1.779341 l 0.475107,1.250795 -1.019181,0.939874 c -0.560549,0.51693 -1.106747,0.944311 -1.213776,0.949735 -0.107029,0.0054 -0.466439,-0.534286 -0.798689,-1.199355 z"
     id="path3230"
     inkscape:connector-curvature="0" /><path
     style="fill:#000000"
     d="m 28.429915,30.481452 c -0.619726,-0.08715 -0.772517,-0.241664 -1.167326,-1.180406 -0.249848,-0.594064 -0.454744,-1.087942 -0.455322,-1.097505 -5.74e-4,-0.0095 0.447356,-0.265904 0.995412,-0.569644 l 0.996464,-0.552254 1.077274,0.667434 1.077276,0.667435 -0.483094,1.088403 c -0.506261,1.140591 -0.589853,1.180595 -2.040684,0.976537 l 0,0 z"
     id="path3232"
     inkscape:connector-curvature="0" /><path
     style="fill:#000000"
     d="m 33.586203,32.223178 -0.899795,-1.014033 0.36636,-0.991629 c 0.201498,-0.545397 0.402183,-1.033102 0.445968,-1.083793 0.04377,-0.05068 0.646581,-0.246325 1.339548,-0.434743 l 1.259941,-0.342581 0.04392,0.908093 c 0.05446,1.123954 -1.040169,3.941503 -1.541103,3.966889 -0.06327,0.0032 -0.519944,-0.450485 -1.01483,-1.008204 z"
     id="path3236"
     inkscape:connector-curvature="0" /><path
     style="fill:#000000"
     d="m 26.469702,35.428891 c -0.687158,-0.199183 -1.298429,-0.4085 -1.358377,-0.465146 -0.05995,-0.05665 0.389537,-0.539316 0.998858,-1.072598 l 1.107854,-0.969601 1.596326,0.07003 c 1.583531,0.06947 1.603535,0.0781 2.495569,1.076392 1.089373,1.21914 1.029079,1.273692 -1.701289,1.539274 -1.472178,0.143195 -2.165533,0.103838 -3.138941,-0.178353 z"
     id="path3238"
     inkscape:connector-curvature="0" /><path
     style="fill:#000000"
     d="m 38.405293,40.261566 c -0.984989,-0.31644 -1.049107,-0.633728 -0.245466,-1.214701 0.369019,-0.266775 0.976128,-0.850801 1.349131,-1.297839 0.676269,-0.810501 0.679977,-0.811818 1.31366,-0.467227 0.788438,0.428747 1.124835,0.981419 1.000836,1.644294 -0.199662,1.067363 -2.028542,1.781905 -3.418161,1.335473 l 0,0 z"
     id="path3240"
     inkscape:connector-curvature="0" /><path
     style="fill:#ffffff"
     d="m 26.263201,36.527387 c -1.319168,-0.378395 -2.70318,-1.12049 -2.828582,-1.516659 -0.03779,-0.11943 0.702766,-0.889247 1.645708,-1.710708 l 1.714443,-1.493562 1.735732,0.0618 c 0.954651,0.034 1.901815,0.103722 2.104806,0.154966 0.351996,0.08886 3.276622,3.15141 3.291593,3.446822 0.01791,0.353486 -2.536086,1.084567 -4.36735,1.250153 -1.575172,0.142427 -2.269144,0.1019 -3.29635,-0.192807 z m 5.127162,-0.945302 c 0.57778,-0.160687 1.046422,-0.372807 1.041426,-0.471392 -0.005,-0.09858 -0.431748,-0.652377 -0.948339,-1.230648 l -0.939253,-1.051403 -1.75594,-0.05974 -1.755939,-0.05974 -1.235227,1.101434 -1.235228,1.101434 0.622488,0.307601 c 1.583992,0.782722 4.154898,0.932875 6.206012,0.362458 z"
     id="path3246"
     inkscape:connector-curvature="0" /><path
     style="fill:#ffffff"
     d="m 33.395738,33.569979 c -2.232364,-2.202568 -2.115173,-1.863927 -1.315634,-3.801652 l 0.698139,-1.691981 2.04423,-0.535561 c 1.12433,-0.294555 2.095745,-0.486883 2.158701,-0.427393 0.24729,0.233676 0.237205,2.878699 -0.01516,3.975937 -0.24533,1.066639 -1.626457,3.398848 -2.134024,3.60357 -0.116392,0.04695 -0.762707,-0.458369 -1.436249,-1.12292 z m 1.984153,-0.92919 c 0.287356,-0.439024 0.630435,-1.176208 0.7624,-1.638185 0.257837,-0.902633 0.254355,-2.941669 -0.005,-2.915761 -0.33745,0.03371 -2.783128,0.749955 -2.826087,0.827648 -0.02504,0.04527 -0.245818,0.616544 -0.490627,1.269474 l -0.445108,1.187148 1.085935,1.041807 c 0.597264,0.572995 1.1557,1.038273 1.24097,1.033952 0.08528,-0.0043 0.390144,-0.367058 0.677498,-0.806083 l 0,0 z"
     id="path3248"
     inkscape:connector-curvature="0" /><path
     style="fill:#ffffff"
     d="m 28.006457,31.639377 -0.980747,-0.03194 -0.738555,-1.881956 c -0.406208,-1.035077 -0.676389,-1.94637 -0.600405,-2.025095 0.07599,-0.07873 0.798717,-0.54554 1.606068,-1.037368 l 1.467914,-0.894229 1.705692,1.068181 c 0.93813,0.587501 1.736586,1.091053 1.774347,1.119008 0.03776,0.02795 -0.276522,0.872851 -0.698401,1.877549 l -0.767056,1.82672 -0.894055,0.0055 c -0.491729,0.0031 -1.335392,-0.0088 -1.874802,-0.02641 l 0,0 z m 2.725371,-2.069698 0.504996,-1.235852 -1.137443,-0.717744 c -0.625595,-0.39476 -1.263897,-0.711337 -1.418448,-0.703504 -0.154553,0.0078 -0.690202,0.294444 -1.190331,0.636916 -0.97655,0.668706 -0.962116,0.552258 -0.285826,2.306049 0.250709,0.650152 0.409379,0.770446 1.120592,0.84957 1.84801,0.205591 1.860988,0.199467 2.40646,-1.135435 l 0,0 z"
     id="path3250"
     inkscape:connector-curvature="0" /><path
     style="fill:#ffffff"
     d="m 30.99869,26.621652 c -1.772812,-1.256716 -1.744583,-1.181577 -1.440823,-3.835123 0.176475,-1.541643 0.182585,-1.55308 0.807162,-1.510732 1.982421,0.134414 4.67443,2.113547 5.891414,4.331294 l 0.599394,1.092291 -0.780499,0.187863 c -0.429272,0.103339 -1.390301,0.338786 -2.135615,0.52325 l -1.355116,0.335387 -1.585917,-1.12423 0,0 z m 4.182516,-0.451159 c 0.356404,-0.159043 0.337154,-0.237739 -0.28129,-1.149923 -0.770175,-1.135975 -1.734709,-1.881221 -3.19583,-2.469247 -1.078788,-0.434159 -1.3866,-0.314894 -1.358112,0.526207 0.0061,0.181708 -0.02735,0.6918 -0.07446,1.133541 -0.08149,0.764156 -0.02861,0.844901 1.08875,1.662335 1.133247,0.829065 1.214059,0.852312 2.306375,0.663494 0.622589,-0.10762 1.304141,-0.272505 1.514563,-0.366406 z"
     id="path3252"
     inkscape:connector-curvature="0" /><path
     style="fill:#ffffff"
     d="m 23.223478,26.183974 c -0.954905,-0.492537 -1.709218,-1.01873 -1.679801,-1.171794 0.0891,-0.463646 1.264525,-1.761914 2.134643,-2.35774 0.951377,-0.651469 2.668251,-1.27978 4.090358,-1.49692 1.140907,-0.174202 1.100623,-0.276315 0.990665,2.511077 l -0.05943,1.506494 -1.603304,0.949517 c -0.881814,0.522232 -1.724043,0.950374 -1.871618,0.951427 -0.14758,9.71e-4 -1.048256,-0.400375 -2.001513,-0.892061 z m 3.333494,-0.755504 c 1.144848,-0.665765 1.331783,-0.860718 1.306359,-1.362389 -0.01632,-0.321996 0.01604,-0.913691 0.0719,-1.314877 l 0.101567,-0.729431 -1.067859,0.187538 c -1.560943,0.27415 -4.375215,1.956236 -4.342809,2.595689 0.0075,0.147431 2.170163,1.330274 2.54565,1.392294 0.02704,0.0045 0.650377,-0.341504 1.385193,-0.768824 z"
     id="path3254"
     inkscape:connector-curvature="0" /><path
     style="fill:#ffffff"
     d="m 33.395738,33.569979 c -2.232364,-2.202568 -2.115173,-1.863927 -1.315634,-3.801652 l 0.698139,-1.691981 2.04423,-0.535561 c 1.12433,-0.294555 2.095745,-0.486883 2.158701,-0.427393 0.24729,0.233676 0.237205,2.878699 -0.01516,3.975937 -0.24533,1.066639 -1.626457,3.398848 -2.134024,3.60357 -0.116392,0.04695 -0.762707,-0.458369 -1.436249,-1.12292 z m 1.984153,-0.92919 c 0.287356,-0.439024 0.630435,-1.176208 0.7624,-1.638185 0.257798,-0.902488 0.254377,-2.94289 -0.0049,-2.913888 -0.08655,0.0097 -0.71939,0.167937 -1.406333,0.351662 -1.230997,0.329252 -1.25714,0.352585 -1.815216,1.619992 l -0.566231,1.285929 1.098866,1.054215 c 0.604377,0.579819 1.168632,1.050679 1.253902,1.046358 0.08528,-0.0043 0.390144,-0.367058 0.677498,-0.806083 l 0,0 z"
     id="path3258"
     inkscape:connector-curvature="0" /><path
     style="fill:#ffffff"
     d="m 28.010039,31.639351 -0.977166,-0.03197 -0.752837,-1.872064 c -0.414059,-1.029635 -0.685852,-1.940913 -0.603983,-2.025065 0.08188,-0.08415 0.805321,-0.552881 1.607672,-1.041621 l 1.45882,-0.888615 1.711554,1.045466 c 0.941355,0.575006 1.743903,1.076033 1.783442,1.113394 0.03954,0.03736 -0.273292,0.889952 -0.695172,1.894649 l -0.767055,1.826727 -0.894054,0.0055 c -0.49173,0.0031 -1.33378,-0.0088 -1.87122,-0.02643 l 0,0 z m 2.723286,-2.119574 0.52961,-1.176613 -1.213147,-0.754272 -1.213148,-0.754272 -1.034257,0.573198 c -0.568841,0.315259 -1.073035,0.647111 -1.12043,0.737454 -0.04739,0.09034 0.136963,0.700614 0.409684,1.356165 0.463617,1.114412 0.546778,1.195205 1.278993,1.242586 1.649372,0.106723 1.798348,0.02953 2.362695,-1.224246 l 0,0 z"
     id="path3260"
     inkscape:connector-curvature="0" /><path
     style="fill:#ffffff"
     d="m 26.02598,39.851401 c -1.955781,-0.510159 -3.272669,-1.087708 -4.773489,-2.093517 -1.74231,-1.167648 -2.717022,-2.297506 -3.828406,-4.437779 -0.861794,-1.65962 -0.891822,-1.782335 -1.010854,-4.131114 -0.11985,-2.364904 -0.106108,-2.46045 0.596434,-4.146306 1.330682,-3.193186 4.346844,-5.871635 7.759787,-6.890937 1.901469,-0.567887 5.326564,-0.591577 7.222325,-0.04995 4.439499,1.268381 8.050915,4.948011 8.953889,9.12301 1.097373,5.073833 -2.532532,10.574536 -8.172023,12.383751 -1.711888,0.549193 -5.105056,0.67131 -6.747663,0.242833 z m 7.066042,-3.587832 c 0.608672,-0.245238 1.14589,-0.572164 1.193813,-0.726504 0.04792,-0.154339 0.206886,-0.239471 0.353246,-0.189179 0.32928,0.113144 1.983435,-2.300334 2.475188,-3.611394 0.273244,-0.728498 0.338975,-1.461611 0.266117,-2.968118 -0.08659,-1.793603 -0.169969,-2.135821 -0.804119,-3.306564 -1.0658,-1.96764 -3.079301,-3.653226 -5.01221,-4.195937 -0.833942,-0.234149 -1.63853,-0.376263 -1.787972,-0.315808 -0.149445,0.06045 -0.362368,0.602878 -0.473164,1.205383 l -0.201449,1.095465 0.04879,-1.37084 0.04879,-1.370841 -0.802693,0.158832 c -2.612789,0.516983 -4.855955,1.495542 -6.066029,2.646243 -0.713473,0.678468 -1.781704,2.609183 -2.022242,3.654988 -0.368839,1.603643 -0.215975,3.651861 0.379345,5.082863 0.542654,1.304396 2.229374,3.209435 3.480459,3.930949 1.820737,1.050035 2.611517,1.192136 5.297031,0.951859 1.614873,-0.144489 2.91801,-0.385704 3.627079,-0.671392 l 0,0 z"
     id="path3021"
     inkscape:connector-curvature="0" /><path
     style="fill:#ffffff"
     d="m 16.312178,19.909323 c -1.358242,-1.008425 -0.784209,-2.260627 1.159264,-2.528833 1.132305,-0.15626 2.737529,0.317414 2.358858,0.69606 -0.511726,0.511689 -2.634477,2.357642 -2.713359,2.359548 -0.05074,0.0013 -0.412882,-0.235823 -0.804763,-0.526775 z"
     id="path3024"
     inkscape:connector-curvature="0" /><path
     style="fill:#ffffff"
     d="m 31.45527,15.841735 c -0.644362,-0.12091 -2.42683,-0.165794 -3.961042,-0.09974 l -2.789479,0.120089 -0.04311,-0.850572 c -0.08736,-1.723704 1.455847,-2.959976 3.852333,-3.086138 1.475838,-0.0777 3.164474,0.472168 3.9216,1.276979 0.514717,0.547134 0.845329,1.567138 0.748264,2.308549 -0.08471,0.647048 -0.06424,0.64313 -1.72857,0.330833 z"
     id="path3026"
     inkscape:connector-curvature="0" /><path
     style="fill:#ffffff"
     d="m 39.141528,19.743194 c -1.449922,-1.436277 -1.417448,-1.663553 0.250601,-1.753906 1.965873,-0.106536 3.261261,1.448254 2.093349,2.512465 -0.298385,0.271892 -0.657383,0.500168 -0.797772,0.507282 -0.140389,0.0071 -0.83617,-0.562513 -1.546178,-1.265841 z"
     id="path3028"
     inkscape:connector-curvature="0" /><path
     style="fill:#ffffff"
     d="m 31.688221,25.642442 c -0.724869,-0.453179 -1.042516,-0.795853 -1.060143,-1.143661 -0.03953,-0.780018 0.152002,-1.884506 0.328346,-1.893443 0.713591,-0.03616 4.220505,2.877019 3.904203,3.243209 -0.05101,0.05905 -0.552799,0.182429 -1.115089,0.274161 -0.89706,0.146345 -1.149173,0.0875 -2.057317,-0.480266 z"
     id="path3030"
     inkscape:connector-curvature="0" /><path
     style="fill:#ffffff"
     d="m 24.167422,25.244753 c -0.692761,-0.386758 -0.881389,-0.594614 -0.730863,-0.80536 0.335118,-0.469185 2.353061,-1.547711 3.274778,-1.750263 0.807272,-0.177407 0.863124,-0.156322 0.885276,0.334065 0.04676,1.035249 -0.176248,1.438885 -1.148523,2.07874 -0.543316,0.357552 -1.068638,0.653252 -1.167381,0.657108 -0.09874,0.0039 -0.599725,-0.227573 -1.113287,-0.51429 z"
     id="path3032"
     inkscape:connector-curvature="0" /><path
     style="fill:#ffffff"
     d="m 22.144925,31.449991 c -0.757078,-1.604297 -0.777292,-3.726476 -0.03584,-3.762282 0.629543,-0.0305 1.77915,0.790072 2.097841,1.497239 0.715984,1.58875 0.715572,1.5919 -0.325546,2.477746 -0.534229,0.454554 -1.030566,0.831926 -1.102968,0.838603 -0.07241,0.0066 -0.357475,-0.46641 -0.63349,-1.051306 z"
     id="path3034"
     inkscape:connector-curvature="0" /><path
     style="fill:#ffffff"
     d="m 26.319667,35.23841 -1.17722,-0.331436 1.055457,-0.914758 c 0.956353,-0.828865 1.159843,-0.914255 2.167167,-0.909411 0.611441,0.0029 1.412875,0.119149 1.780965,0.258241 0.707502,0.267348 1.785657,1.489442 1.552691,1.759984 -0.07566,0.08787 -1.052015,0.229283 -2.169695,0.314279 -1.481004,0.112633 -2.351421,0.06465 -3.209365,-0.176899 z"
     id="path3036"
     inkscape:connector-curvature="0" /><path
     style="fill:#ffffff"
     d="m 28.227516,30.322749 c -0.269178,-0.102464 -1.182373,-1.585229 -1.20085,-1.949817 -0.0052,-0.101741 0.382743,-0.40981 0.861996,-0.684604 l 0.87137,-0.499623 1.021079,0.646407 1.021079,0.646405 -0.420858,0.892972 c -0.353761,0.7506 -0.53711,0.905713 -1.150002,0.972899 -0.401027,0.04395 -0.852746,0.03286 -1.003814,-0.02464 l 0,0 z"
     id="path3040"
     inkscape:connector-curvature="0" /><path
     style="fill:#ffffff"
     d="m 33.648364,32.079092 -0.815466,-0.938617 0.357888,-0.981795 c 0.336194,-0.922283 0.429965,-1.002561 1.546969,-1.324384 0.653994,-0.188423 1.234591,-0.299584 1.290216,-0.247022 0.348167,0.328998 -0.913915,4.39748 -1.371329,4.420661 -0.106053,0.0054 -0.559771,-0.412605 -1.008278,-0.928843 z"
     id="path3042"
     inkscape:connector-curvature="0" /><path
     style="fill:#ffffff"
     d="m 38.316125,40.063705 c -0.330351,-0.107162 -0.576035,-0.271438 -0.545967,-0.365063 0.03007,-0.09363 0.619749,-0.712153 1.310399,-1.3745 1.233854,-1.183289 1.265295,-1.198406 1.804633,-0.867686 0.564609,0.346217 0.924502,1.138187 0.759174,1.670618 -0.132946,0.428152 -1.41655,1.103055 -2.127192,1.118454 -0.330224,0.0072 -0.870698,-0.07467 -1.201047,-0.181823 z"
     id="path3044"
     inkscape:connector-curvature="0" /><path
     style="fill:#ffffff"
     d="m 16.229544,39.234763 c -0.392339,-0.223048 -0.775236,-0.550984 -0.850883,-0.728745 -0.241905,-0.568439 0.03321,-1.317018 0.6372,-1.733757 0.58503,-0.403664 0.58862,-0.402667 1.350871,0.375017 1.8093,1.845929 1.880294,1.945271 1.559218,2.181792 -0.517553,0.38126 -1.947885,0.331234 -2.696406,-0.09431 z"
     id="path3046"
     inkscape:connector-curvature="0" /><path
     style="fill:#ffffff"
     d="M 19.485,42.408748 C 16.930631,41.936367 14.884655,41.208894 12.872365,40.057542 2.3991749,34.065193 -0.57562983,20.429709 6.4587641,10.659792 7.4177273,9.3279092 9.1801874,7.5013192 10.446658,6.5267926 17.519118,1.0846589 27.359733,0.931272 34.610263,6.1501513 c 4.345124,3.1275891 7.24437,7.8896897 8.144789,13.3780657 0.286201,1.744506 0.198987,5.358034 -0.170201,7.051783 -0.333997,1.532304 -1.053201,3.608859 -1.68843,4.875 -1.379553,2.749731 -3.793426,5.617816 -6.165667,7.325842 -2.500958,1.800704 -5.721003,3.154637 -8.621423,3.62505 -1.668492,0.270611 -5.168305,0.27212 -6.624331,0.0028 l 0,6e-6 z m 4.23522,-7.562761 c 0.558793,-0.726233 0.5775,-0.735924 1.76478,-0.914346 0.66,-0.09918 1.604794,-0.325958 2.099544,-0.503943 l 0.899545,-0.323609 0.556731,0.556731 c 0.771519,0.771519 1.565844,1.139993 2.71026,1.257242 1.745225,0.178803 3.344949,-0.586571 4.029147,-1.92771 0.428928,-0.840771 0.347073,-2.245383 -0.176203,-3.023564 -0.317334,-0.471916 -1.36328,-1.318207 -1.8155,-1.468947 -0.07915,-0.02639 0.03033,-0.428578 0.243302,-0.893764 1.066953,-2.330531 1.02912,-5.611563 -0.09004,-7.808868 l -0.28512,-0.559791 0.556092,-0.23235 c 1.523905,-0.636727 2.214244,-1.669651 2.118702,-3.170121 -0.07696,-1.208622 -0.607013,-2.005253 -1.771461,-2.66238 -0.754025,-0.425514 -0.941142,-0.465474 -2.175,-0.464491 -1.532874,0.0012 -2.305952,0.299664 -3.1875,1.230518 -0.268125,0.283122 -0.486483,0.493085 -0.485241,0.466586 0.0012,-0.0265 0.09953,-0.31818 0.218415,-0.64818 0.878715,-2.439093 -0.674723,-5.0170198 -3.536837,-5.869373 -1.24093,-0.3695564 -3.399607,-0.2256947 -4.507946,0.3004252 -2.170022,1.0300902 -3.261936,3.2037278 -2.604179,5.1840488 0.14237,0.428634 0.218226,0.819961 0.16857,0.869616 -0.04965,0.04966 -0.09028,0.01173 -0.09028,-0.08429 0,-0.360723 -1.081357,-1.352281 -1.838754,-1.686058 -1.094979,-0.482547 -2.749179,-0.483755 -3.744348,-0.0027 -1.27208,0.614866 -2.069754,1.809139 -2.062767,3.088361 0.0056,1.029877 1.008547,2.375268 2.114483,2.83652 l 0.543614,0.226723 -0.498183,1.243379 c -0.887804,2.215807 -0.941409,4.777357 -0.145841,6.969122 0.202286,0.557292 0.354069,1.015733 0.337295,1.018757 -0.01678,0.003 -0.366118,0.174249 -0.776319,0.380499 -1.973326,0.992193 -2.4424056,3.241501 -1.007865,4.832863 0.807731,0.89603 1.804363,1.31387 3.13815,1.315671 1.337582,0.0018 2.161666,-0.297256 2.984141,-1.082961 l 0.618606,-0.590949 0.62207,0.317357 c 0.342138,0.174546 1.211265,0.472653 1.931394,0.662461 1.278688,0.337031 1.321609,0.363119 1.834324,1.114905 0.28875,0.423389 0.574599,0.772241 0.63522,0.775226 0.06062,0.003 0.364369,-0.324879 0.675,-0.728586 l 0,0 z"
     id="path3197"
     inkscape:connector-curvature="0"
     transform="scale(1.2222222,1.2222222)" /><path
     style="fill:#ffffff"
     d="M 20.985,44.331546 C 19.03187,44.099317 17.9762,43.898953 16.685405,43.515487 8.4898669,41.080779 2.5713154,34.36467 1.1662149,25.905 0.89605547,24.278454 0.86691819,21.070206 1.1075048,19.440537 2.5415387,9.7267738 10.030326,2.2610758 19.813733,0.79198431 c 1.386672,-0.20822481 4.555862,-0.20822481 5.942534,0 C 31.071336,1.5901033 35.89261,4.2012202 39.305485,8.1300001 44.221066,13.788643 45.891357,21.47733 43.783909,28.745097 41.651107,36.100305 35.337696,42.055776 27.806325,43.816831 25.664956,44.317546 22.729909,44.539015 20.985,44.331546 l 0,0 z m 5.625,-1.919823 c 0.53625,-0.128337 1.1775,-0.273071 1.425,-0.321632 0.2475,-0.04856 0.534375,-0.157711 0.6375,-0.242559 0.103125,-0.08485 0.1875,-0.115245 0.1875,-0.06755 0,0.316989 3.436141,-1.286703 5.1,-2.380238 C 41.146387,34.67665 44.558592,25.861621 42.437361,17.49948 42.240541,16.723596 41.839614,15.50037 41.546412,14.7812 40.984866,13.403835 39.641112,11.055214 38.993479,10.319169 38.782566,10.079462 38.608333,9.8432122 38.606296,9.7941692 38.596965,9.5694805 36.377056,7.4143369 35.136063,6.425179 33.328635,4.9845344 30.322815,3.4953623 27.98436,2.882015 25.980291,2.3563728 22.660725,2.10969 20.76,2.34516 c -0.28875,0.035772 -0.8625,0.1067143 -1.275,0.1576505 -0.4125,0.050936 -0.98625,0.1603127 -1.275,0.2430587 -0.28875,0.082746 -0.890161,0.249978 -1.336471,0.3716265 -0.901352,0.2456775 -1.252776,0.3934596 -3.306454,1.3904368 -1.797702,0.872712 -3.345156,1.9799198 -4.9307474,3.5279639 -1.2396847,1.2103288 -2.7263275,3.0506606 -2.7263275,3.3749506 0,0.09303 -0.051494,0.169153 -0.1144308,0.169153 -0.062937,0 -0.1810619,0.122717 -0.2625,0.272705 -0.2684018,0.494326 -1.4917167,2.950729 -1.5076247,3.027295 -0.00857,0.04125 -0.1010041,0.2775 -0.205408,0.525 -0.1044039,0.2475 -0.201896,0.5175 -0.2166489,0.6 -0.014752,0.0825 -0.067613,0.2175 -0.1174661,0.3 -0.049853,0.0825 -0.1334688,0.3525 -0.1858122,0.6 -0.1357453,0.641858 -0.2112774,0.968997 -0.3809625,1.65 -0.6658136,2.672135 -0.3602218,7.842361 0.6028818,10.2 0.1011047,0.2475 0.2078886,0.585 0.2372978,0.75 0.084575,0.474507 1.6577554,3.572364 2.0015458,3.94138 0.170948,0.183491 0.2687628,0.33362 0.2173667,0.33362 -0.093543,0 0.64696,1.010472 1.1542057,1.575 0.1482575,0.165 0.4907333,0.564442 0.7610573,0.887649 0.3945054,0.471682 1.9846702,1.898635 2.741498,2.460115 0.0825,0.06121 0.38625,0.288743 0.675,0.505637 1.10524,0.830199 5.4,2.879709 5.4,2.576943 0,-0.05064 0.08437,-0.02605 0.1875,0.05464 0.237641,0.185952 1.348593,0.464385 2.8875,0.723681 1.541738,0.259775 5.470086,0.172319 6.825,-0.151942 z"
     id="path3199"
     inkscape:connector-curvature="0"
     transform="scale(1.2222222,1.2222222)" /></svg>