<?xml version="1.0" standalone="no"?>
<!DOCTYPE svg PUBLIC "-//W3C//DTD SVG 20010904//EN"
  "http://www.w3.org/TR/2001/REC-SVG-20010904/DTD/svg10.dtd">
<svg width="22" height="17">
  <circle cx="0" cy="0" r="1" fill="rgb(138,138,138)"/>
  <circle cx="1" cy="0" r="1" fill="rgb(132,132,132)"/>
  <circle cx="2" cy="0" r="1" fill="rgb(133,133,133)"/>
  <circle cx="3" cy="0" r="1" fill="rgb(133,133,133)"/>
  <circle cx="4" cy="0" r="1" fill="rgb(133,133,133)"/>
  <circle cx="5" cy="0" r="1" fill="rgb(133,133,133)"/>
  <circle cx="6" cy="0" r="1" fill="rgb(133,133,133)"/>
  <circle cx="7" cy="0" r="1" fill="rgb(133,133,133)"/>
  <circle cx="8" cy="0" r="1" fill="rgb(133,133,133)"/>
  <circle cx="9" cy="0" r="1" fill="rgb(133,133,133)"/>
  <circle cx="10" cy="0" r="1" fill="rgb(133,133,133)"/>
  <circle cx="11" cy="0" r="1" fill="rgb(133,132,132)"/>
  <circle cx="12" cy="0" r="1" fill="rgb(137,143,145)"/>
  <circle cx="13" cy="0" r="1" fill="rgb(136,140,145)"/>
  <circle cx="14" cy="0" r="1" fill="rgb(132,131,130)"/>
  <circle cx="15" cy="0" r="1" fill="rgb(133,134,134)"/>
  <circle cx="16" cy="0" r="1" fill="rgb(133,133,133)"/>
  <circle cx="17" cy="0" r="1" fill="rgb(133,133,133)"/>
  <circle cx="18" cy="0" r="1" fill="rgb(133,133,133)"/>
  <circle cx="19" cy="0" r="1" fill="rgb(133,133,133)"/>
  <circle cx="20" cy="0" r="1" fill="rgb(132,132,132)"/>
  <circle cx="21" cy="0" r="1" fill="rgb(138,138,138)"/>
  <circle cx="0" cy="1" r="1" fill="rgb(132,132,132)"/>
  <circle cx="1" cy="1" r="1" fill="rgb(126,126,126)"/>
  <circle cx="2" cy="1" r="1" fill="rgb(127,127,127)"/>
  <circle cx="3" cy="1" r="1" fill="rgb(127,127,127)"/>
  <circle cx="4" cy="1" r="1" fill="rgb(127,127,127)"/>
  <circle cx="5" cy="1" r="1" fill="rgb(127,127,127)"/>
  <circle cx="6" cy="1" r="1" fill="rgb(127,127,127)"/>
  <circle cx="7" cy="1" r="1" fill="rgb(127,127,127)"/>
  <circle cx="8" cy="1" r="1" fill="rgb(127,127,127)"/>
  <circle cx="9" cy="1" r="1" fill="rgb(127,127,127)"/>
  <circle cx="10" cy="1" r="1" fill="rgb(127,128,129)"/>
  <circle cx="11" cy="1" r="1" fill="rgb(128,129,129)"/>
  <circle cx="12" cy="1" r="1" fill="rgb(127,127,127)"/>
  <circle cx="13" cy="1" r="1" fill="rgb(133,143,146)"/>
  <circle cx="14" cy="1" r="1" fill="rgb(128,130,131)"/>
  <circle cx="15" cy="1" r="1" fill="rgb(127,126,126)"/>
  <circle cx="16" cy="1" r="1" fill="rgb(127,127,127)"/>
  <circle cx="17" cy="1" r="1" fill="rgb(127,127,127)"/>
  <circle cx="18" cy="1" r="1" fill="rgb(127,127,127)"/>
  <circle cx="19" cy="1" r="1" fill="rgb(127,127,127)"/>
  <circle cx="20" cy="1" r="1" fill="rgb(126,126,126)"/>
  <circle cx="21" cy="1" r="1" fill="rgb(132,132,132)"/>
  <circle cx="0" cy="2" r="1" fill="rgb(133,133,133)"/>
  <circle cx="1" cy="2" r="1" fill="rgb(127,127,127)"/>
  <circle cx="2" cy="2" r="1" fill="rgb(128,128,128)"/>
  <circle cx="3" cy="2" r="1" fill="rgb(128,128,128)"/>
  <circle cx="4" cy="2" r="1" fill="rgb(128,128,128)"/>
  <circle cx="5" cy="2" r="1" fill="rgb(128,128,128)"/>
  <circle cx="6" cy="2" r="1" fill="rgb(128,128,128)"/>
  <circle cx="7" cy="2" r="1" fill="rgb(128,128,128)"/>
  <circle cx="8" cy="2" r="1" fill="rgb(128,128,128)"/>
  <circle cx="9" cy="2" r="1" fill="rgb(128,130,130)"/>
  <circle cx="10" cy="2" r="1" fill="rgb(129,129,130)"/>
  <circle cx="11" cy="2" r="1" fill="rgb(128,129,129)"/>
  <circle cx="12" cy="2" r="1" fill="rgb(128,127,126)"/>
  <circle cx="13" cy="2" r="1" fill="rgb(129,132,131)"/>
  <circle cx="14" cy="2" r="1" fill="rgb(135,145,150)"/>
  <circle cx="15" cy="2" r="1" fill="rgb(128,127,128)"/>
  <circle cx="16" cy="2" r="1" fill="rgb(128,128,128)"/>
  <circle cx="17" cy="2" r="1" fill="rgb(128,128,128)"/>
  <circle cx="18" cy="2" r="1" fill="rgb(128,128,128)"/>
  <circle cx="19" cy="2" r="1" fill="rgb(128,128,128)"/>
  <circle cx="20" cy="2" r="1" fill="rgb(127,127,127)"/>
  <circle cx="21" cy="2" r="1" fill="rgb(133,133,133)"/>
  <circle cx="0" cy="3" r="1" fill="rgb(133,133,133)"/>
  <circle cx="1" cy="3" r="1" fill="rgb(127,127,127)"/>
  <circle cx="2" cy="3" r="1" fill="rgb(128,128,128)"/>
  <circle cx="3" cy="3" r="1" fill="rgb(128,128,128)"/>
  <circle cx="4" cy="3" r="1" fill="rgb(128,128,128)"/>
  <circle cx="5" cy="3" r="1" fill="rgb(128,128,128)"/>
  <circle cx="6" cy="3" r="1" fill="rgb(128,128,128)"/>
  <circle cx="7" cy="3" r="1" fill="rgb(128,128,128)"/>
  <circle cx="8" cy="3" r="1" fill="rgb(129,129,130)"/>
  <circle cx="9" cy="3" r="1" fill="rgb(128,129,128)"/>
  <circle cx="10" cy="3" r="1" fill="rgb(128,128,128)"/>
  <circle cx="11" cy="3" r="1" fill="rgb(127,128,129)"/>
  <circle cx="12" cy="3" r="1" fill="rgb(128,128,128)"/>
  <circle cx="13" cy="3" r="1" fill="rgb(127,125,125)"/>
  <circle cx="14" cy="3" r="1" fill="rgb(131,137,137)"/>
  <circle cx="15" cy="3" r="1" fill="rgb(133,142,147)"/>
  <circle cx="16" cy="3" r="1" fill="rgb(127,126,125)"/>
  <circle cx="17" cy="3" r="1" fill="rgb(128,129,129)"/>
  <circle cx="18" cy="3" r="1" fill="rgb(128,128,128)"/>
  <circle cx="19" cy="3" r="1" fill="rgb(128,128,128)"/>
  <circle cx="20" cy="3" r="1" fill="rgb(127,127,127)"/>
  <circle cx="21" cy="3" r="1" fill="rgb(133,133,133)"/>
  <circle cx="0" cy="4" r="1" fill="rgb(133,133,133)"/>
  <circle cx="1" cy="4" r="1" fill="rgb(127,127,127)"/>
  <circle cx="2" cy="4" r="1" fill="rgb(128,128,128)"/>
  <circle cx="3" cy="4" r="1" fill="rgb(128,128,128)"/>
  <circle cx="4" cy="4" r="1" fill="rgb(128,128,128)"/>
  <circle cx="5" cy="4" r="1" fill="rgb(128,128,128)"/>
  <circle cx="6" cy="4" r="1" fill="rgb(128,128,127)"/>
  <circle cx="7" cy="4" r="1" fill="rgb(128,128,128)"/>
  <circle cx="8" cy="4" r="1" fill="rgb(128,128,128)"/>
  <circle cx="9" cy="4" r="1" fill="rgb(128,128,127)"/>
  <circle cx="10" cy="4" r="1" fill="rgb(128,129,129)"/>
  <circle cx="11" cy="4" r="1" fill="rgb(128,128,128)"/>
  <circle cx="12" cy="4" r="1" fill="rgb(128,128,127)"/>
  <circle cx="13" cy="4" r="1" fill="rgb(128,127,128)"/>
  <circle cx="14" cy="4" r="1" fill="rgb(127,126,125)"/>
  <circle cx="15" cy="4" r="1" fill="rgb(134,142,144)"/>
  <circle cx="16" cy="4" r="1" fill="rgb(131,136,140)"/>
  <circle cx="17" cy="4" r="1" fill="rgb(127,126,125)"/>
  <circle cx="18" cy="4" r="1" fill="rgb(128,128,129)"/>
  <circle cx="19" cy="4" r="1" fill="rgb(128,128,128)"/>
  <circle cx="20" cy="4" r="1" fill="rgb(127,127,127)"/>
  <circle cx="21" cy="4" r="1" fill="rgb(133,133,133)"/>
  <circle cx="0" cy="5" r="1" fill="rgb(133,133,133)"/>
  <circle cx="1" cy="5" r="1" fill="rgb(127,127,127)"/>
  <circle cx="2" cy="5" r="1" fill="rgb(128,128,128)"/>
  <circle cx="3" cy="5" r="1" fill="rgb(128,128,128)"/>
  <circle cx="4" cy="5" r="1" fill="rgb(128,128,128)"/>
  <circle cx="5" cy="5" r="1" fill="rgb(128,128,128)"/>
  <circle cx="6" cy="5" r="1" fill="rgb(126,126,124)"/>
  <circle cx="7" cy="5" r="1" fill="rgb(127,127,127)"/>
  <circle cx="8" cy="5" r="1" fill="rgb(128,128,128)"/>
  <circle cx="9" cy="5" r="1" fill="rgb(128,128,129)"/>
  <circle cx="10" cy="5" r="1" fill="rgb(127,128,128)"/>
  <circle cx="11" cy="5" r="1" fill="rgb(128,127,128)"/>
  <circle cx="12" cy="5" r="1" fill="rgb(128,127,128)"/>
  <circle cx="13" cy="5" r="1" fill="rgb(128,128,128)"/>
  <circle cx="14" cy="5" r="1" fill="rgb(128,127,128)"/>
  <circle cx="15" cy="5" r="1" fill="rgb(128,128,127)"/>
  <circle cx="16" cy="5" r="1" fill="rgb(135,147,149)"/>
  <circle cx="17" cy="5" r="1" fill="rgb(129,131,134)"/>
  <circle cx="18" cy="5" r="1" fill="rgb(128,127,126)"/>
  <circle cx="19" cy="5" r="1" fill="rgb(128,128,129)"/>
  <circle cx="20" cy="5" r="1" fill="rgb(127,127,127)"/>
  <circle cx="21" cy="5" r="1" fill="rgb(133,133,133)"/>
  <circle cx="0" cy="6" r="1" fill="rgb(133,133,133)"/>
  <circle cx="1" cy="6" r="1" fill="rgb(127,127,127)"/>
  <circle cx="2" cy="6" r="1" fill="rgb(128,128,128)"/>
  <circle cx="3" cy="6" r="1" fill="rgb(128,128,128)"/>
  <circle cx="4" cy="6" r="1" fill="rgb(128,128,129)"/>
  <circle cx="5" cy="6" r="1" fill="rgb(128,127,126)"/>
  <circle cx="6" cy="6" r="1" fill="rgb(127,126,125)"/>
  <circle cx="7" cy="6" r="1" fill="rgb(128,128,128)"/>
  <circle cx="8" cy="6" r="1" fill="rgb(128,128,128)"/>
  <circle cx="9" cy="6" r="1" fill="rgb(127,129,130)"/>
  <circle cx="10" cy="6" r="1" fill="rgb(127,128,128)"/>
  <circle cx="11" cy="6" r="1" fill="rgb(128,128,127)"/>
  <circle cx="12" cy="6" r="1" fill="rgb(128,127,127)"/>
  <circle cx="13" cy="6" r="1" fill="rgb(128,128,128)"/>
  <circle cx="14" cy="6" r="1" fill="rgb(128,128,128)"/>
  <circle cx="15" cy="6" r="1" fill="rgb(127,126,127)"/>
  <circle cx="16" cy="6" r="1" fill="rgb(130,133,131)"/>
  <circle cx="17" cy="6" r="1" fill="rgb(135,144,150)"/>
  <circle cx="18" cy="6" r="1" fill="rgb(128,128,129)"/>
  <circle cx="19" cy="6" r="1" fill="rgb(128,128,128)"/>
  <circle cx="20" cy="6" r="1" fill="rgb(127,127,127)"/>
  <circle cx="21" cy="6" r="1" fill="rgb(133,133,133)"/>
  <circle cx="0" cy="7" r="1" fill="rgb(133,133,133)"/>
  <circle cx="1" cy="7" r="1" fill="rgb(127,127,127)"/>
  <circle cx="2" cy="7" r="1" fill="rgb(128,128,128)"/>
  <circle cx="3" cy="7" r="1" fill="rgb(128,128,128)"/>
  <circle cx="4" cy="7" r="1" fill="rgb(127,128,127)"/>
  <circle cx="5" cy="7" r="1" fill="rgb(127,125,124)"/>
  <circle cx="6" cy="7" r="1" fill="rgb(128,128,129)"/>
  <circle cx="7" cy="7" r="1" fill="rgb(128,128,128)"/>
  <circle cx="8" cy="7" r="1" fill="rgb(128,128,129)"/>
  <circle cx="9" cy="7" r="1" fill="rgb(128,128,129)"/>
  <circle cx="10" cy="7" r="1" fill="rgb(127,126,127)"/>
  <circle cx="11" cy="7" r="1" fill="rgb(128,129,129)"/>
  <circle cx="12" cy="7" r="1" fill="rgb(128,127,127)"/>
  <circle cx="13" cy="7" r="1" fill="rgb(128,127,128)"/>
  <circle cx="14" cy="7" r="1" fill="rgb(128,128,129)"/>
  <circle cx="15" cy="7" r="1" fill="rgb(128,128,129)"/>
  <circle cx="16" cy="7" r="1" fill="rgb(127,127,125)"/>
  <circle cx="17" cy="7" r="1" fill="rgb(133,139,139)"/>
  <circle cx="18" cy="7" r="1" fill="rgb(131,135,139)"/>
  <circle cx="19" cy="7" r="1" fill="rgb(128,127,126)"/>
  <circle cx="20" cy="7" r="1" fill="rgb(127,127,127)"/>
  <circle cx="21" cy="7" r="1" fill="rgb(133,133,133)"/>
  <circle cx="0" cy="8" r="1" fill="rgb(133,133,133)"/>
  <circle cx="1" cy="8" r="1" fill="rgb(127,127,127)"/>
  <circle cx="2" cy="8" r="1" fill="rgb(128,128,128)"/>
  <circle cx="3" cy="8" r="1" fill="rgb(128,128,128)"/>
  <circle cx="4" cy="8" r="1" fill="rgb(127,125,124)"/>
  <circle cx="5" cy="8" r="1" fill="rgb(128,127,128)"/>
  <circle cx="6" cy="8" r="1" fill="rgb(128,128,128)"/>
  <circle cx="7" cy="8" r="1" fill="rgb(128,128,128)"/>
  <circle cx="8" cy="8" r="1" fill="rgb(128,129,130)"/>
  <circle cx="9" cy="8" r="1" fill="rgb(127,127,128)"/>
  <circle cx="10" cy="8" r="1" fill="rgb(127,127,127)"/>
  <circle cx="11" cy="8" r="1" fill="rgb(127,126,127)"/>
  <circle cx="12" cy="8" r="1" fill="rgb(128,127,128)"/>
  <circle cx="13" cy="8" r="1" fill="rgb(128,127,128)"/>
  <circle cx="14" cy="8" r="1" fill="rgb(128,127,129)"/>
  <circle cx="15" cy="8" r="1" fill="rgb(128,128,128)"/>
  <circle cx="16" cy="8" r="1" fill="rgb(128,127,127)"/>
  <circle cx="17" cy="8" r="1" fill="rgb(130,136,134)"/>
  <circle cx="18" cy="8" r="1" fill="rgb(130,134,137)"/>
  <circle cx="19" cy="8" r="1" fill="rgb(128,127,126)"/>
  <circle cx="20" cy="8" r="1" fill="rgb(127,127,127)"/>
  <circle cx="21" cy="8" r="1" fill="rgb(133,133,133)"/>
  <circle cx="0" cy="9" r="1" fill="rgb(133,133,133)"/>
  <circle cx="1" cy="9" r="1" fill="rgb(127,127,127)"/>
  <circle cx="2" cy="9" r="1" fill="rgb(128,129,129)"/>
  <circle cx="3" cy="9" r="1" fill="rgb(127,126,125)"/>
  <circle cx="4" cy="9" r="1" fill="rgb(127,126,126)"/>
  <circle cx="5" cy="9" r="1" fill="rgb(128,128,128)"/>
  <circle cx="6" cy="9" r="1" fill="rgb(128,128,127)"/>
  <circle cx="7" cy="9" r="1" fill="rgb(128,128,127)"/>
  <circle cx="8" cy="9" r="1" fill="rgb(130,130,129)"/>
  <circle cx="9" cy="9" r="1" fill="rgb(130,131,131)"/>
  <circle cx="10" cy="9" r="1" fill="rgb(127,127,128)"/>
  <circle cx="11" cy="9" r="1" fill="rgb(128,127,126)"/>
  <circle cx="12" cy="9" r="1" fill="rgb(127,127,128)"/>
  <circle cx="13" cy="9" r="1" fill="rgb(128,127,128)"/>
  <circle cx="14" cy="9" r="1" fill="rgb(128,127,128)"/>
  <circle cx="15" cy="9" r="1" fill="rgb(128,127,128)"/>
  <circle cx="16" cy="9" r="1" fill="rgb(127,126,126)"/>
  <circle cx="17" cy="9" r="1" fill="rgb(131,136,135)"/>
  <circle cx="18" cy="9" r="1" fill="rgb(130,134,136)"/>
  <circle cx="19" cy="9" r="1" fill="rgb(128,127,126)"/>
  <circle cx="20" cy="9" r="1" fill="rgb(127,127,127)"/>
  <circle cx="21" cy="9" r="1" fill="rgb(133,133,133)"/>
  <circle cx="0" cy="10" r="1" fill="rgb(133,133,133)"/>
  <circle cx="1" cy="10" r="1" fill="rgb(127,127,127)"/>
  <circle cx="2" cy="10" r="1" fill="rgb(129,129,128)"/>
  <circle cx="3" cy="10" r="1" fill="rgb(128,125,125)"/>
  <circle cx="4" cy="10" r="1" fill="rgb(127,127,128)"/>
  <circle cx="5" cy="10" r="1" fill="rgb(128,129,129)"/>
  <circle cx="6" cy="10" r="1" fill="rgb(129,128,127)"/>
  <circle cx="7" cy="10" r="1" fill="rgb(130,130,128)"/>
  <circle cx="8" cy="10" r="1" fill="rgb(129,129,130)"/>
  <circle cx="9" cy="10" r="1" fill="rgb(131,131,129)"/>
  <circle cx="10" cy="10" r="1" fill="rgb(133,134,132)"/>
  <circle cx="11" cy="10" r="1" fill="rgb(128,127,128)"/>
  <circle cx="12" cy="10" r="1" fill="rgb(128,127,127)"/>
  <circle cx="13" cy="10" r="1" fill="rgb(128,127,128)"/>
  <circle cx="14" cy="10" r="1" fill="rgb(128,127,128)"/>
  <circle cx="15" cy="10" r="1" fill="rgb(129,128,128)"/>
  <circle cx="16" cy="10" r="1" fill="rgb(127,126,126)"/>
  <circle cx="17" cy="10" r="1" fill="rgb(131,136,135)"/>
  <circle cx="18" cy="10" r="1" fill="rgb(130,134,136)"/>
  <circle cx="19" cy="10" r="1" fill="rgb(128,127,127)"/>
  <circle cx="20" cy="10" r="1" fill="rgb(127,127,127)"/>
  <circle cx="21" cy="10" r="1" fill="rgb(133,133,133)"/>
  <circle cx="0" cy="11" r="1" fill="rgb(133,133,133)"/>
  <circle cx="1" cy="11" r="1" fill="rgb(127,128,128)"/>
  <circle cx="2" cy="11" r="1" fill="rgb(125,120,117)"/>
  <circle cx="3" cy="11" r="1" fill="rgb(127,125,125)"/>
  <circle cx="4" cy="11" r="1" fill="rgb(131,133,131)"/>
  <circle cx="5" cy="11" r="1" fill="rgb(130,130,128)"/>
  <circle cx="6" cy="11" r="1" fill="rgb(129,129,128)"/>
  <circle cx="7" cy="11" r="1" fill="rgb(129,129,127)"/>
  <circle cx="8" cy="11" r="1" fill="rgb(129,129,128)"/>
  <circle cx="9" cy="11" r="1" fill="rgb(128,128,128)"/>
  <circle cx="10" cy="11" r="1" fill="rgb(131,130,128)"/>
  <circle cx="11" cy="11" r="1" fill="rgb(133,135,130)"/>
  <circle cx="12" cy="11" r="1" fill="rgb(129,128,127)"/>
  <circle cx="13" cy="11" r="1" fill="rgb(127,127,128)"/>
  <circle cx="14" cy="11" r="1" fill="rgb(127,128,127)"/>
  <circle cx="15" cy="11" r="1" fill="rgb(128,127,129)"/>
  <circle cx="16" cy="11" r="1" fill="rgb(128,125,126)"/>
  <circle cx="17" cy="11" r="1" fill="rgb(131,135,136)"/>
  <circle cx="18" cy="11" r="1" fill="rgb(130,133,136)"/>
  <circle cx="19" cy="11" r="1" fill="rgb(128,127,127)"/>
  <circle cx="20" cy="11" r="1" fill="rgb(127,127,127)"/>
  <circle cx="21" cy="11" r="1" fill="rgb(133,133,133)"/>
  <circle cx="0" cy="12" r="1" fill="rgb(133,133,133)"/>
  <circle cx="1" cy="12" r="1" fill="rgb(127,128,128)"/>
  <circle cx="2" cy="12" r="1" fill="rgb(126,124,120)"/>
  <circle cx="3" cy="12" r="1" fill="rgb(120,111,107)"/>
  <circle cx="4" cy="12" r="1" fill="rgb(122,116,117)"/>
  <circle cx="5" cy="12" r="1" fill="rgb(129,130,131)"/>
  <circle cx="6" cy="12" r="1" fill="rgb(129,130,129)"/>
  <circle cx="7" cy="12" r="1" fill="rgb(128,128,128)"/>
  <circle cx="8" cy="12" r="1" fill="rgb(128,128,129)"/>
  <circle cx="9" cy="12" r="1" fill="rgb(129,128,129)"/>
  <circle cx="10" cy="12" r="1" fill="rgb(128,128,128)"/>
  <circle cx="11" cy="12" r="1" fill="rgb(130,129,127)"/>
  <circle cx="12" cy="12" r="1" fill="rgb(134,135,129)"/>
  <circle cx="13" cy="12" r="1" fill="rgb(129,131,129)"/>
  <circle cx="14" cy="12" r="1" fill="rgb(127,127,129)"/>
  <circle cx="15" cy="12" r="1" fill="rgb(128,128,128)"/>
  <circle cx="16" cy="12" r="1" fill="rgb(127,126,126)"/>
  <circle cx="17" cy="12" r="1" fill="rgb(131,135,137)"/>
  <circle cx="18" cy="12" r="1" fill="rgb(130,132,135)"/>
  <circle cx="19" cy="12" r="1" fill="rgb(128,127,127)"/>
  <circle cx="20" cy="12" r="1" fill="rgb(127,127,127)"/>
  <circle cx="21" cy="12" r="1" fill="rgb(133,133,133)"/>
  <circle cx="0" cy="13" r="1" fill="rgb(133,133,133)"/>
  <circle cx="1" cy="13" r="1" fill="rgb(127,127,127)"/>
  <circle cx="2" cy="13" r="1" fill="rgb(129,129,130)"/>
  <circle cx="3" cy="13" r="1" fill="rgb(128,128,128)"/>
  <circle cx="4" cy="13" r="1" fill="rgb(121,114,113)"/>
  <circle cx="5" cy="13" r="1" fill="rgb(117,108,108)"/>
  <circle cx="6" cy="13" r="1" fill="rgb(124,121,122)"/>
  <circle cx="7" cy="13" r="1" fill="rgb(130,131,131)"/>
  <circle cx="8" cy="13" r="1" fill="rgb(129,129,128)"/>
  <circle cx="9" cy="13" r="1" fill="rgb(128,128,128)"/>
  <circle cx="10" cy="13" r="1" fill="rgb(128,128,128)"/>
  <circle cx="11" cy="13" r="1" fill="rgb(128,128,129)"/>
  <circle cx="12" cy="13" r="1" fill="rgb(129,128,129)"/>
  <circle cx="13" cy="13" r="1" fill="rgb(134,134,130)"/>
  <circle cx="14" cy="13" r="1" fill="rgb(130,131,130)"/>
  <circle cx="15" cy="13" r="1" fill="rgb(126,127,127)"/>
  <circle cx="16" cy="13" r="1" fill="rgb(128,127,126)"/>
  <circle cx="17" cy="13" r="1" fill="rgb(131,136,138)"/>
  <circle cx="18" cy="13" r="1" fill="rgb(129,132,134)"/>
  <circle cx="19" cy="13" r="1" fill="rgb(128,127,127)"/>
  <circle cx="20" cy="13" r="1" fill="rgb(127,127,127)"/>
  <circle cx="21" cy="13" r="1" fill="rgb(133,133,133)"/>
  <circle cx="0" cy="14" r="1" fill="rgb(133,133,133)"/>
  <circle cx="1" cy="14" r="1" fill="rgb(127,127,127)"/>
  <circle cx="2" cy="14" r="1" fill="rgb(128,128,128)"/>
  <circle cx="3" cy="14" r="1" fill="rgb(128,128,128)"/>
  <circle cx="4" cy="14" r="1" fill="rgb(130,131,131)"/>
  <circle cx="5" cy="14" r="1" fill="rgb(127,125,124)"/>
  <circle cx="6" cy="14" r="1" fill="rgb(119,110,108)"/>
  <circle cx="7" cy="14" r="1" fill="rgb(119,111,112)"/>
  <circle cx="8" cy="14" r="1" fill="rgb(127,125,128)"/>
  <circle cx="9" cy="14" r="1" fill="rgb(129,130,131)"/>
  <circle cx="10" cy="14" r="1" fill="rgb(129,129,129)"/>
  <circle cx="11" cy="14" r="1" fill="rgb(129,129,129)"/>
  <circle cx="12" cy="14" r="1" fill="rgb(128,129,129)"/>
  <circle cx="13" cy="14" r="1" fill="rgb(128,128,128)"/>
  <circle cx="14" cy="14" r="1" fill="rgb(134,133,128)"/>
  <circle cx="15" cy="14" r="1" fill="rgb(132,133,130)"/>
  <circle cx="16" cy="14" r="1" fill="rgb(127,127,126)"/>
  <circle cx="17" cy="14" r="1" fill="rgb(131,136,136)"/>
  <circle cx="18" cy="14" r="1" fill="rgb(129,131,133)"/>
  <circle cx="19" cy="14" r="1" fill="rgb(128,128,127)"/>
  <circle cx="20" cy="14" r="1" fill="rgb(127,127,127)"/>
  <circle cx="21" cy="14" r="1" fill="rgb(133,133,133)"/>
  <circle cx="0" cy="15" r="1" fill="rgb(132,132,132)"/>
  <circle cx="1" cy="15" r="1" fill="rgb(126,126,126)"/>
  <circle cx="2" cy="15" r="1" fill="rgb(127,127,127)"/>
  <circle cx="3" cy="15" r="1" fill="rgb(127,127,127)"/>
  <circle cx="4" cy="15" r="1" fill="rgb(127,126,126)"/>
  <circle cx="5" cy="15" r="1" fill="rgb(127,128,128)"/>
  <circle cx="6" cy="15" r="1" fill="rgb(129,130,129)"/>
  <circle cx="7" cy="15" r="1" fill="rgb(123,119,117)"/>
  <circle cx="8" cy="15" r="1" fill="rgb(116,108,105)"/>
  <circle cx="9" cy="15" r="1" fill="rgb(120,115,116)"/>
  <circle cx="10" cy="15" r="1" fill="rgb(124,122,125)"/>
  <circle cx="11" cy="15" r="1" fill="rgb(125,124,125)"/>
  <circle cx="12" cy="15" r="1" fill="rgb(126,125,126)"/>
  <circle cx="13" cy="15" r="1" fill="rgb(127,126,126)"/>
  <circle cx="14" cy="15" r="1" fill="rgb(126,126,126)"/>
  <circle cx="15" cy="15" r="1" fill="rgb(130,130,128)"/>
  <circle cx="16" cy="15" r="1" fill="rgb(132,132,129)"/>
  <circle cx="17" cy="15" r="1" fill="rgb(131,136,139)"/>
  <circle cx="18" cy="15" r="1" fill="rgb(128,129,131)"/>
  <circle cx="19" cy="15" r="1" fill="rgb(127,127,126)"/>
  <circle cx="20" cy="15" r="1" fill="rgb(126,126,126)"/>
  <circle cx="21" cy="15" r="1" fill="rgb(132,132,132)"/>
  <circle cx="0" cy="16" r="1" fill="rgb(138,138,138)"/>
  <circle cx="1" cy="16" r="1" fill="rgb(132,132,132)"/>
  <circle cx="2" cy="16" r="1" fill="rgb(133,133,133)"/>
  <circle cx="3" cy="16" r="1" fill="rgb(133,133,133)"/>
  <circle cx="4" cy="16" r="1" fill="rgb(133,133,133)"/>
  <circle cx="5" cy="16" r="1" fill="rgb(133,133,133)"/>
  <circle cx="6" cy="16" r="1" fill="rgb(133,132,132)"/>
  <circle cx="7" cy="16" r="1" fill="rgb(134,135,136)"/>
  <circle cx="8" cy="16" r="1" fill="rgb(133,133,133)"/>
  <circle cx="9" cy="16" r="1" fill="rgb(127,122,118)"/>
  <circle cx="10" cy="16" r="1" fill="rgb(126,120,117)"/>
  <circle cx="11" cy="16" r="1" fill="rgb(125,119,119)"/>
  <circle cx="12" cy="16" r="1" fill="rgb(124,118,118)"/>
  <circle cx="13" cy="16" r="1" fill="rgb(125,118,117)"/>
  <circle cx="14" cy="16" r="1" fill="rgb(124,119,117)"/>
  <circle cx="15" cy="16" r="1" fill="rgb(124,118,118)"/>
  <circle cx="16" cy="16" r="1" fill="rgb(127,119,116)"/>
  <circle cx="17" cy="16" r="1" fill="rgb(134,133,130)"/>
  <circle cx="18" cy="16" r="1" fill="rgb(134,135,136)"/>
  <circle cx="19" cy="16" r="1" fill="rgb(133,133,132)"/>
  <circle cx="20" cy="16" r="1" fill="rgb(132,132,132)"/>
  <circle cx="21" cy="16" r="1" fill="rgb(138,138,138)"/>
</svg>
