<?xml version="1.0" encoding="UTF-8" standalone="no"?>
<!-- Created with Inkscape (http://www.inkscape.org/) -->

<svg
   xmlns:dc="http://purl.org/dc/elements/1.1/"
   xmlns:cc="http://creativecommons.org/ns#"
   xmlns:rdf="http://www.w3.org/1999/02/22-rdf-syntax-ns#"
   xmlns:svg="http://www.w3.org/2000/svg"
   xmlns="http://www.w3.org/2000/svg"
   xmlns:sodipodi="http://sodipodi.sourceforge.net/DTD/sodipodi-0.dtd"
   xmlns:inkscape="http://www.inkscape.org/namespaces/inkscape"
   version="1.0"
   width="45"
   height="45"
   viewBox="0 0 55 55"
   id="svg2"
   xml:space="preserve"
   inkscape:version="0.48.0 r9654"
   sodipodi:docname="finedges.svg"><metadata
     id="metadata24"><rdf:RDF><cc:Work
         rdf:about=""><dc:format>image/svg+xml</dc:format><dc:type
           rdf:resource="http://purl.org/dc/dcmitype/StillImage" /><dc:title /></cc:Work></rdf:RDF></metadata><sodipodi:namedview
     pagecolor="#ffffff"
     bordercolor="#666666"
     borderopacity="1"
     objecttolerance="10"
     gridtolerance="10"
     guidetolerance="10"
     inkscape:pageopacity="0"
     inkscape:pageshadow="2"
     inkscape:window-width="1366"
     inkscape:window-height="701"
     id="namedview22"
     showgrid="false"
     inkscape:zoom="6.6666667"
     inkscape:cx="22.5"
     inkscape:cy="17.57319"
     inkscape:window-x="0"
     inkscape:window-y="0"
     inkscape:window-maximized="1"
     inkscape:current-layer="svg2" /><defs
     id="defs12">
	
</defs><path
     d=""
     id="path2385"
     style="fill:#00d000;fill-opacity:1;stroke:#00d000;stroke-width:1.5;stroke-linecap:round;stroke-miterlimit:4;stroke-opacity:1;stroke-dasharray:none" /><g
     transform="matrix(1.3571325,0.10790977,-0.07757718,1.0961287,-6.6637309,-5.6395051)"
     id="g2937"><path
       d="m 27.567493,45.252146 c -0.46948,0 -0.933016,-0.02903 -1.389761,-0.08296 l 1.178368,1.948634 1.161389,-1.918769 c -0.314968,0.02489 -0.629086,0.05309 -0.949996,0.05309 z"
       id="path3003"
       style="fill:none;stroke:#ffffff;stroke-width:1.20000005;stroke-miterlimit:4;stroke-opacity:1;stroke-dasharray:none"
       inkscape:connector-curvature="0" /><path
       d="m 38.317981,14.929279 c -1.837168,0 -3.360217,1.289964 -3.68707,2.992219 1.578232,1.115757 2.934884,2.584076 3.968928,4.320343 1.939893,-0.142684 3.475677,-1.709721 3.475677,-3.641764 0,-2.027442 -1.682656,-3.670798 -3.757535,-3.670798 z"
       id="path3007"
       style="fill:#686868;fill-opacity:1;stroke:#ffffff;stroke-width:2.29999995;stroke-miterlimit:4;stroke-opacity:1;stroke-dasharray:none"
       inkscape:connector-curvature="0" /><path
       d="m 38.787461,38.290488 c -1.039138,1.851575 -2.42805,3.426908 -4.072502,4.609029 0.442312,1.546298 1.878767,2.686942 3.603022,2.686942 2.07403,0 3.757535,-1.642527 3.757535,-3.669969 0,-1.870656 -1.437304,-3.397874 -3.288055,-3.626002 z"
       id="path3009"
       style="fill:#686868;fill-opacity:1;stroke:#ffffff;stroke-width:2.29999995;stroke-miterlimit:4;stroke-opacity:1;stroke-dasharray:none"
       inkscape:connector-curvature="0" /><path
       d="m 16.340734,38.277215 c -1.912727,0.170889 -3.41625,1.724653 -3.41625,3.639275 0,2.026612 1.680958,3.669969 3.755837,3.669969 1.752271,0 3.212497,-1.177974 3.626793,-2.764091 -1.598607,-1.174655 -2.950165,-2.728419 -3.96638,-4.545153 z"
       id="path3011"
       style="fill:#686868;fill-opacity:1;stroke:#ffffff;stroke-width:2.29999995;stroke-miterlimit:4;stroke-opacity:1;stroke-dasharray:none"
       inkscape:connector-curvature="0" /><path
       d="m 20.375881,18.007772 c -0.291196,-1.744563 -1.828678,-3.078493 -3.69556,-3.078493 -2.074879,0 -3.755837,1.643356 -3.755837,3.669968 0,1.97601 1.601155,3.575399 3.603872,3.655037 1.006876,-1.694789 2.319381,-3.139051 3.847525,-4.246512 z"
       id="path3013"
       style="fill:#686868;fill-opacity:1;stroke:#ffffff;stroke-width:2.29999995;stroke-miterlimit:4;stroke-opacity:1;stroke-dasharray:none"
       inkscape:connector-curvature="0" /><path
       d="m 27.567493,15.62362 c 1.619832,0 3.164955,0.340948 4.599711,0.935742 0.629086,-0.892605 1.000085,-1.971862 1.000085,-3.138221 0,-3.058584 -2.537567,-5.5389654 -5.668563,-5.5389654 -3.130146,0 -5.667713,2.4803814 -5.667713,5.5389654 0,1.18461 0.383734,2.280457 1.032345,3.180529 1.463622,-0.62134 3.04525,-0.97805 4.704135,-0.97805 z"
       id="path3015"
       style="fill:#686868;fill-opacity:1;stroke:#ffffff;stroke-width:2.29999995;stroke-miterlimit:4;stroke-opacity:1;stroke-dasharray:none"
       inkscape:connector-curvature="0" /><g
       transform="matrix(0.8489685,0,0,0.82955893,4.2234061,5.2018707)"
       id="g3017"
       style="fill:#686868;fill-opacity:1;stroke:#ffffff;stroke-width:1.42992032;stroke-miterlimit:4;stroke-opacity:1;stroke-dasharray:none"><path
         d="m 43.102,30.421 c 0,4.7344 -1.6452,9.2798 -4.5706,12.6275 -2.9254,3.3478 -6.8973,5.2305 -11.0344,5.2305 -4.1371,0 -8.109,-1.8827 -11.0344,-5.2305 -2.9254,-3.3477 -4.5706,-7.8931 -4.5706,-12.6275 0,-9.7966 7.0444,-17.858 15.605,-17.858 8.5606,0 15.605,8.0614 15.605,17.858 z"
         id="path3019"
         style="fill:#686868;fill-opacity:1;stroke:#ffffff;stroke-width:1.42992032;stroke-miterlimit:4;stroke-opacity:1;stroke-dasharray:none"
         inkscape:connector-curvature="0" /></g><g
       transform="matrix(0.8489685,0,0,0.82955893,4.2234061,5.2018707)"
       id="g3021"
       style="fill:none;stroke:#ffffff;stroke-width:1.42992032;stroke-miterlimit:4;stroke-opacity:1;stroke-dasharray:none"><path
         d="m 25.875,33.75 -1.542,-4.625 3.164,-2.587 3.615,2.626 -1.487,4.669 z"
         id="path3023"
         style="fill:none;stroke:#ffffff;stroke-width:1.42992032;stroke-miterlimit:4;stroke-opacity:1;stroke-dasharray:none"
         inkscape:connector-curvature="0" /><path
         d="m 27.501,41.551 c -3.968,-0.16 -5.543,-2.009 -5.543,-2.009 l 3.57,-4.163 4.465,0.168 3.132,4.12 c 0,0 -2.89,1.994 -5.624,1.884 z"
         id="path3025"
         style="fill:none;stroke:#ffffff;stroke-width:1.42992032;stroke-miterlimit:4;stroke-opacity:1;stroke-dasharray:none"
         inkscape:connector-curvature="0" /><path
         d="m 18.453,33.843 c -0.849,-2.968 0.172,-6.884 0.172,-6.884 l 4,2.167 1.493,4.629 -3.582,4.233 c 0,-10e-4 -1.465,-1.99 -2.083,-4.145 z"
         id="path3027"
         style="fill:none;stroke:#ffffff;stroke-width:1.42992032;stroke-miterlimit:4;stroke-opacity:1;stroke-dasharray:none"
         inkscape:connector-curvature="0" /><path
         d="m 19.458,25.125 c 0,0 0.5,-1.958 3.039,-3.822 2.237,-1.643 4.465,-1.72 4.465,-1.72 l -0.037,4.981 -3.521,2.75 -3.946,-2.189 z"
         id="path3029"
         style="fill:none;stroke:#ffffff;stroke-width:1.42992032;stroke-miterlimit:4;stroke-opacity:1;stroke-dasharray:none"
         inkscape:connector-curvature="0" /><path
         d="M 32.084,27.834 28.625,24.959 29,19.75 c 0,0 1.834,-0.042 3.959,1.667 2.228,1.791 3.362,4.983 3.362,4.983 l -4.237,1.434 z"
         id="path3031"
         style="fill:none;stroke:#ffffff;stroke-width:1.42992032;stroke-miterlimit:4;stroke-opacity:1;stroke-dasharray:none"
         inkscape:connector-curvature="0" /><path
         d="m 31.292,34.042 1.313,-4.464 4.187,-1.536 c 0,0 0.677,2.663 -0.042,5.667 -0.54,2.256 -2.084,4.361 -2.084,4.361 l -3.374,-4.028 z"
         id="path3033"
         style="fill:none;stroke:#ffffff;stroke-width:1.42992032;stroke-miterlimit:4;stroke-opacity:1;stroke-dasharray:none"
         inkscape:connector-curvature="0" /></g></g><path
     style="fill:#000000"
     d="M 25.313598,45.74729 C 21.440834,44.96393 17.279164,42.641313 15.032579,40.009483 13.592476,38.322434 12.236387,35.683559 11.682336,33.4901 9.360623,24.29853 17.429111,15.327866 28.018005,15.327866 c 8.496715,0 16.150436,6.130107 17.332356,13.882033 1.343718,8.813085 -6.690983,16.947491 -16.615487,16.821677 -1.182833,-0.01498 -2.722408,-0.142916 -3.421276,-0.284286 z m 8.511046,-4.997786 c 0.985694,-0.356641 1.792173,-0.746087 1.792173,-0.865438 0,-0.119361 -0.322591,-0.529506 -0.71687,-0.911459 -0.394277,-0.381954 -0.716869,-0.830428 -0.716869,-0.99661 0,-0.166177 0.45541,0.153009 1.012022,0.709321 l 1.012022,1.011474 1.14283,-1.323076 c 0.628556,-0.727693 1.495672,-1.988375 1.92692,-2.801516 0.706432,-1.332012 0.784091,-1.77129 0.784091,-4.435315 0,-2.627496 -0.0845,-3.121566 -0.75847,-4.435316 -1.021381,-1.990917 -2.840588,-4.067147 -4.377409,-4.995866 -1.246636,-0.753353 -4.444047,-1.782144 -4.704401,-1.513674 -0.07367,0.07597 -0.366944,1.372104 -0.651723,2.880302 l -0.517778,2.742177 0.166965,-3.05162 0.166963,-3.051618 -0.970299,0.155669 c -0.533666,0.0856 -1.613511,0.240877 -2.399657,0.345034 -2.825982,0.374413 -6.26404,2.458478 -7.227438,4.381093 -0.255137,0.50917 -0.634175,1.058825 -0.8423,1.221451 -0.643654,0.502945 -1.334923,3.960105 -1.182741,5.915099 0.337478,4.335314 3.953806,8.413866 8.525963,9.615715 1.750964,0.460263 6.541314,0.125889 8.536006,-0.595817 l 0,0 z"
     id="path3216"
     inkscape:connector-curvature="0" /><path
     style="fill:#000000"
     d="M 11.099897,44.175965 C 8.9281401,43.187441 8.6175585,41.312091 10.458518,40.303201 l 1.079107,-0.591375 1.834447,2.069812 1.834449,2.069814 -0.762948,0.356272 c -0.999234,0.466612 -2.275402,0.454491 -3.343676,-0.03176 z"
     id="path3218"
     inkscape:connector-curvature="0" /><path
     style="fill:#000000"
     d="m 12.50545,18.302096 c -1.863779,-1.171861 -1.98494,-2.52471 -0.322551,-3.601505 1.143202,-0.740501 3.388217,-0.65387 4.619174,0.17824 l 0.827468,0.559358 -0.671335,0.457155 c -0.369233,0.25144 -1.334942,1.01353 -2.146017,1.693538 l -1.474684,1.236376 -0.832055,-0.523162 0,0 z"
     id="path3220"
     inkscape:connector-curvature="0" /><path
     style="fill:#000000"
     d="m 33.609583,13.614804 c -0.905681,-0.323971 -2.572641,-0.480296 -5.591578,-0.524369 l -4.301214,-0.06279 -0.08625,-1.179989 c -0.17245,-2.3592973 2.313624,-4.2020449 5.677833,-4.2085518 4.084678,-0.00789 7.138521,2.8662978 6.194857,5.8304468 -0.242404,0.761413 -0.183711,0.756908 -1.893643,0.145261 z"
     id="path3222"
     inkscape:connector-curvature="0" /><path
     style="fill:#000000"
     d="m 42.948256,19.269531 c -1.915819,-2.131377 -1.886231,-2.445805 0.253537,-2.694509 3.415255,-0.396951 5.665594,2.830556 2.912767,4.177586 -0.538105,0.263307 -1.087909,0.463147 -1.221783,0.444088 -0.133872,-0.01912 -1.008912,-0.886283 -1.944521,-1.927165 z"
     id="path3224"
     inkscape:connector-curvature="0" /><path
     style="fill:#000000"
     d="m 32.530294,26.645316 -1.509409,-1.126496 0.17656,-1.478438 c 0.09711,-0.813141 0.260193,-1.57092 0.362418,-1.683956 0.366212,-0.404936 3.078904,1.282427 4.415392,2.746486 0.749127,0.820636 1.362052,1.601604 1.362052,1.735491 0,0.323447 -0.527738,0.515731 -2.042261,0.74411 -1.138996,0.171756 -1.395229,0.0849 -2.764748,-0.937197 l 0,0 z"
     id="path3226"
     inkscape:connector-curvature="0" /><path
     style="fill:#000000"
     d="m 22.567917,25.746376 c -1.814224,-0.941662 -1.754281,-0.864032 -1.175977,-1.522974 0.658625,-0.750462 3.467093,-2.026296 5.026463,-2.283421 1.226145,-0.202181 1.254439,-0.188945 1.074928,0.502844 -0.101392,0.390774 -0.186119,1.074492 -0.188277,1.51938 -0.0032,0.686747 -0.253158,0.938624 -1.6546,1.668126 l -1.650682,0.85924 -1.431854,-0.743195 0,0 z"
     id="path3228"
     inkscape:connector-curvature="0" /><path
     style="fill:#000000"
     d="m 19.076248,33.762719 c -0.613645,-1.382172 -0.712303,-1.950697 -0.586588,-3.380328 0.08312,-0.945282 0.233862,-1.856724 0.334975,-2.025427 0.116593,-0.194543 0.753768,-0.01853 1.742067,0.481323 1.450022,0.733326 1.59709,0.906705 2.117788,2.496654 l 0.559559,1.708601 -1.449885,1.190407 c -0.797437,0.654723 -1.569202,1.190406 -1.715039,1.190406 -0.14584,0 -0.597129,-0.747736 -1.002877,-1.661636 z"
     id="path3230"
     inkscape:connector-curvature="0" /><path
     style="fill:#000000"
     d="m 27.916051,32.798164 c -0.836258,-0.158902 -1.033271,-0.376351 -1.505192,-1.661279 -0.298647,-0.813141 -0.543098,-1.488959 -0.543228,-1.501815 -1.28e-4,-0.01281 0.626308,-0.325984 1.392081,-0.695837 l 1.392317,-0.672456 1.418137,0.967671 1.418136,0.967673 -0.731531,1.425879 c -0.766611,1.49425 -0.882974,1.542185 -2.84072,1.170164 l 0,0 z"
     id="path3232"
     inkscape:connector-curvature="0" /><path
     style="fill:#000000"
     d=""
     id="path3234"
     inkscape:connector-curvature="0"
     transform="scale(1.2222222,1.2222222)" /><path
     style="fill:#000000"
     d="m 34.803914,35.482659 -1.153055,-1.420131 0.566214,-1.304112 c 0.31142,-0.717262 0.617757,-1.35726 0.680757,-1.422222 0.06299,-0.06495 0.895722,-0.286212 1.8505,-0.491668 l 1.735961,-0.373553 -0.0028,1.220019 c -0.0033,1.510036 -1.685152,5.211801 -2.36771,5.211801 -0.08622,0 -0.675622,-0.63906 -1.309801,-1.420134 z"
     id="path3236"
     inkscape:connector-curvature="0" /><path
     style="fill:#000000"
     d="m 24.911198,39.295643 c -0.920187,-0.313619 -1.736538,-0.635662 -1.81411,-0.715655 -0.07757,-0.07999 0.56656,-0.69634 1.431407,-1.369664 l 1.572449,-1.224225 2.164717,0.202277 c 2.147364,0.200656 2.173957,0.213578 3.31755,1.612093 1.396577,1.707896 1.310876,1.776915 -2.418217,1.947403 -2.010672,0.09192 -2.950289,-0.0078 -4.253796,-0.452229 z"
     id="path3238"
     inkscape:connector-curvature="0" /><path
     style="fill:#000000"
     d="m 40.79981,46.583117 c -1.316889,-0.490997 -1.382178,-0.920585 -0.249948,-1.644628 0.519903,-0.33247 1.385241,-1.073958 1.922972,-1.647749 0.974932,-1.04031 0.980061,-1.041824 1.817556,-0.536959 1.042021,0.628163 1.461149,1.391709 1.246968,2.27168 -0.344874,1.41693 -2.87969,2.250352 -4.737548,1.557656 l 0,0 z"
     id="path3240"
     inkscape:connector-curvature="0" /><path
     style="fill:#000000"
     d=""
     id="path3242"
     inkscape:connector-curvature="0"
     transform="scale(1.2222222,1.2222222)" /><path
     style="fill:#000000"
     d=""
     id="path3244"
     inkscape:connector-curvature="0"
     transform="scale(1.2222222,1.2222222)" /><path
     style="fill:#ffffff"
     d="m 24.554887,40.753837 c -1.766799,-0.596728 -3.596672,-1.685292 -3.73982,-2.22476 -0.04314,-0.16263 1.016367,-1.14405 2.354484,-2.180936 l 2.432941,-1.885245 2.354747,0.200708 c 1.295111,0.110392 2.577583,0.268178 2.849935,0.350644 0.472272,0.142994 4.236147,4.446105 4.236147,4.843039 0,0.47496 -3.521454,1.281299 -6.021699,1.378839 -2.150601,0.08389 -3.090978,-0.01754 -4.466735,-0.482289 z m 7.03335,-0.918671 c 0.796317,-0.176103 1.44785,-0.428567 1.44785,-0.561031 0,-0.132469 -0.541848,-0.903647 -1.204108,-1.713741 l -1.204106,-1.472896 -2.382355,-0.199329 -2.382354,-0.199332 -1.754638,1.39226 -1.754641,1.39226 0.824826,0.454529 c 2.098866,1.156599 5.582601,1.532449 8.409526,0.90728 z"
     id="path3246"
     inkscape:connector-curvature="0" /><path
     style="fill:#ffffff"
     d="M 34.452294,37.274723 C 31.570029,34.171194 31.705979,34.633004 32.92608,32.090346 l 1.065367,-2.220197 2.815169,-0.57892 c 1.548342,-0.318405 2.881826,-0.510185 2.963291,-0.426179 0.319994,0.329969 0.12411,3.874179 -0.294455,5.327567 -0.40689,1.41286 -2.44459,4.444709 -3.148518,4.684607 -0.161418,0.05502 -1.005012,-0.666114 -1.87464,-1.602501 z m 2.76063,-1.110548 c 0.420779,-0.568869 0.937828,-1.53355 1.148997,-2.143736 0.412592,-1.192205 0.5483,-3.925183 0.194057,-3.908075 -0.460946,0.02225 -3.834157,0.816069 -3.897894,0.917277 -0.03714,0.05898 -0.376554,0.809603 -0.754241,1.66804 l -0.686704,1.5608 1.404119,1.469998 c 0.772269,0.808502 1.499184,1.470002 1.615368,1.470002 0.116198,0 0.555521,-0.465437 0.976298,-1.034306 l 0,0 z"
     id="path3248"
     inkscape:connector-curvature="0" /><path
     style="fill:#ffffff"
     d="m 27.260782,34.321269 -1.330713,-0.109422 -0.87414,-2.572384 c -0.480776,-1.414812 -0.785208,-2.654489 -0.676518,-2.754838 0.108698,-0.100354 1.123098,-0.67689 2.254231,-1.281207 l 2.056609,-1.098757 2.244604,1.547439 c 1.234534,0.851093 2.285019,1.580192 2.334412,1.620222 0.0494,0.04004 -0.435934,1.151023 -1.078504,2.468878 l -1.168309,2.396094 -1.215478,-0.05329 c -0.66851,-0.02931 -1.814299,-0.102537 -2.546194,-0.162727 l 0,0 z m 3.846562,-2.588729 0.771451,-1.622004 -1.496445,-1.039184 c -0.823046,-0.571553 -1.668748,-1.039187 -1.879335,-1.039187 -0.210589,0 -0.958322,0.34774 -1.661627,0.772756 -1.37327,0.829881 -1.345633,0.674797 -0.547292,3.071183 0.295954,0.888369 0.503315,1.060366 1.464462,1.214711 2.49744,0.401054 2.515501,0.393729 3.348786,-1.358275 l 0,0 z"
     id="path3250"
     inkscape:connector-curvature="0" /><path
     style="fill:#ffffff"
     d="m 31.673079,27.799683 c -2.322841,-1.804674 -2.289651,-1.702055 -1.694051,-5.237738 0.346028,-2.054145 0.35512,-2.069057 1.201056,-1.96988 2.685017,0.314791 6.207368,3.15009 7.708601,6.204998 l 0.739393,1.504611 -1.073702,0.198765 c -0.590534,0.109323 -1.912869,0.359618 -2.938518,0.556216 l -1.864817,0.357451 -2.077962,-1.614423 0,0 z m 5.715464,-0.320573 c 0.495339,-0.188945 0.474596,-0.29572 -0.303095,-1.560246 -0.968488,-1.574757 -2.228042,-2.639056 -4.173329,-3.526374 -1.436259,-0.655136 -1.862817,-0.516204 -1.882029,0.612986 -0.0042,0.243942 -0.08482,0.9253 -0.179275,1.514128 -0.163388,1.018596 -0.09709,1.130403 1.365206,2.301828 1.483078,1.188093 1.591305,1.22474 3.088858,1.045871 0.853562,-0.101954 1.791206,-0.276635 2.083657,-0.388193 z"
     id="path3252"
     inkscape:connector-curvature="0" /><path
     style="fill:#ffffff"
     d="m 21.136062,26.685012 c -1.26387,-0.724961 -2.252803,-1.481404 -2.202281,-1.684546 0.153028,-0.61533 1.839949,-2.275449 3.063552,-3.014885 1.33787,-0.80849 3.71452,-1.533951 5.662237,-1.728376 1.562588,-0.155984 1.51487,-0.295565 1.173445,3.432664 l -0.184532,2.014985 -2.244425,1.163657 c -1.234427,0.64001 -2.408574,1.156606 -2.609214,1.147993 -0.20064,-0.0087 -1.397091,-0.607785 -2.658782,-1.331492 z m 4.582533,-0.786125 c 1.601799,-0.814509 1.869288,-1.063092 1.869288,-1.737165 0,-0.432649 0.08472,-1.223448 0.188279,-1.75733 l 0.188279,-0.970693 -1.464226,0.178811 c -2.140335,0.261403 -6.081022,2.324608 -6.081022,3.183812 0,0.198096 2.857809,1.930246 3.363856,2.03887 0.03644,0.0078 0.907438,-0.413515 1.935546,-0.936305 z"
     id="path3254"
     inkscape:connector-curvature="0" /><path
     style="fill:#ffffff"
     d=""
     id="path3256"
     inkscape:connector-curvature="0"
     transform="scale(1.2222222,1.2222222)" /><path
     style="fill:#ffffff"
     d="M 34.452294,37.274723 C 31.570029,34.171194 31.705979,34.633004 32.92608,32.090346 l 1.065367,-2.220197 2.815169,-0.57892 c 1.548342,-0.318405 2.881826,-0.510185 2.963291,-0.426179 0.319994,0.329969 0.12411,3.874179 -0.294455,5.327567 -0.40689,1.41286 -2.44459,4.444709 -3.148518,4.684607 -0.161418,0.05502 -1.005012,-0.666114 -1.87464,-1.602501 z m 2.76063,-1.110548 c 0.420779,-0.568869 0.937828,-1.53355 1.148997,-2.143736 0.412526,-1.192014 0.548413,-3.926817 0.194057,-3.905559 -0.118286,0.0071 -0.989277,0.17621 -1.935546,0.375785 -1.695705,0.357658 -1.732843,0.387152 -2.57861,2.047845 l -0.858124,1.684959 1.42084,1.487506 c 0.781464,0.818128 1.515904,1.487506 1.632088,1.487506 0.116198,0 0.555521,-0.465437 0.976298,-1.034306 l 0,0 z"
     id="path3258"
     inkscape:connector-curvature="0" /><path
     style="fill:#ffffff"
     d="m 27.265653,34.321476 -1.325847,-0.109238 -0.894229,-2.560094 c -0.491824,-1.408054 -0.798449,-2.64782 -0.681384,-2.755041 0.117063,-0.107223 1.132579,-0.686282 2.256703,-1.286799 l 2.043861,-1.091852 2.254139,1.517396 c 1.239777,0.834567 2.295998,1.560559 2.347159,1.613315 0.05115,0.05275 -0.432722,1.174162 -1.075292,2.492016 l -1.168309,2.396101 -1.215478,-0.05329 c -0.66851,-0.02931 -1.812108,-0.102453 -2.541323,-0.162511 l 0,0 z m 3.847162,-2.655714 0.800826,-1.54094 -1.596817,-1.09328 -1.596819,-1.093285 -1.445123,0.697963 c -0.794814,0.383879 -1.502915,0.794388 -1.573551,0.912244 -0.07064,0.117862 0.137885,0.948276 0.463388,1.845378 0.55334,1.525036 0.660797,1.638965 1.652674,1.752195 2.234284,0.255059 2.442072,0.161721 3.295422,-1.480275 l 0,0 z"
     id="path3260"
     inkscape:connector-curvature="0" /></svg>