<?xml version="1.0" encoding="UTF-8" standalone="no"?>
<!-- Created with Inkscape (http://www.inkscape.org/) -->

<svg
   xmlns:dc="http://purl.org/dc/elements/1.1/"
   xmlns:cc="http://creativecommons.org/ns#"
   xmlns:rdf="http://www.w3.org/1999/02/22-rdf-syntax-ns#"
   xmlns:svg="http://www.w3.org/2000/svg"
   xmlns="http://www.w3.org/2000/svg"
   xmlns:sodipodi="http://sodipodi.sourceforge.net/DTD/sodipodi-0.dtd"
   xmlns:inkscape="http://www.inkscape.org/namespaces/inkscape"
   version="1.0"
   width="45"
   height="45"
   viewBox="0 0 55 55"
   id="svg2"
   xml:space="preserve"
   inkscape:version="0.48.0 r9654"
   sodipodi:docname="original.svg"><metadata
     id="metadata24"><rdf:RDF><cc:Work
         rdf:about=""><dc:format>image/svg+xml</dc:format><dc:type
           rdf:resource="http://purl.org/dc/dcmitype/StillImage" /><dc:title></dc:title></cc:Work></rdf:RDF></metadata><sodipodi:namedview
     pagecolor="#ffffff"
     bordercolor="#666666"
     borderopacity="1"
     objecttolerance="10"
     gridtolerance="10"
     guidetolerance="10"
     inkscape:pageopacity="0"
     inkscape:pageshadow="2"
     inkscape:window-width="1366"
     inkscape:window-height="701"
     id="namedview22"
     showgrid="false"
     inkscape:zoom="6.6666667"
     inkscape:cx="22.5"
     inkscape:cy="22.5"
     inkscape:window-x="0"
     inkscape:window-y="0"
     inkscape:window-maximized="1"
     inkscape:current-layer="svg2" /><defs
     id="defs12">
	
</defs><path
     d=""
     id="path2385"
     style="fill:#00d000;fill-opacity:1;stroke:#00d000;stroke-width:1.5;stroke-linecap:round;stroke-miterlimit:4;stroke-opacity:1;stroke-dasharray:none" /><rect
     style="fill:#000000"
     id="rect2999"
     width="45.150002"
     height="45.299999"
     x="-0.15000001"
     y="2.2499999e-07"
     transform="scale(1.2222222,1.2222222)" /><path
     d="m 52.839328,27.500001 c 0,13.669047 -11.080953,24.749999 -24.75,24.749999 -13.669046,0 -24.7499987,-11.080952 -24.7499987,-24.749999 0,-13.669048 11.0809527,-24.7500008 24.7499987,-24.7500008 13.669047,0 24.75,11.0809528 24.75,24.7500008 l 0,0 z"
     id="path2387"
     style="fill:#0000ff;fill-opacity:1;stroke:#00d000;stroke-width:4.27777814999999961;stroke-linecap:round;stroke-miterlimit:4;stroke-opacity:0.94117647000000004;stroke-dasharray:none"
     inkscape:connector-curvature="0" /><g
     transform="matrix(0,1.2222222,-1.2222222,0,63.494441,-6.1105177)"
     id="g2937"
     style="fill:#0000ff"><path
       d="m 27.567493,45.252146 c -0.46948,0 -0.933016,-0.02903 -1.389761,-0.08296 l 1.178368,1.948634 1.161389,-1.918769 c -0.314968,0.02489 -0.629086,0.05309 -0.949996,0.05309 z"
       id="path3003"
       style="fill:#0000ff;stroke:#ffffff;stroke-width:1.20000005000000010;stroke-miterlimit:4;stroke-opacity:1;stroke-dasharray:none"
       inkscape:connector-curvature="0" /><path
       d="m 38.317981,14.929279 c -1.837168,0 -3.360217,1.289964 -3.68707,2.992219 1.578232,1.115757 2.934884,2.584076 3.968928,4.320343 1.939893,-0.142684 3.475677,-1.709721 3.475677,-3.641764 0,-2.027442 -1.682656,-3.670798 -3.757535,-3.670798 z"
       id="path3007"
       style="fill:#0000ff;fill-opacity:1;stroke:#ffffff;stroke-width:2.29999995000000013;stroke-miterlimit:4;stroke-opacity:1;stroke-dasharray:none"
       inkscape:connector-curvature="0" /><path
       d="m 38.787461,38.290488 c -1.039138,1.851575 -2.42805,3.426908 -4.072502,4.609029 0.442312,1.546298 1.878767,2.686942 3.603022,2.686942 2.07403,0 3.757535,-1.642527 3.757535,-3.669969 0,-1.870656 -1.437304,-3.397874 -3.288055,-3.626002 z"
       id="path3009"
       style="fill:#0000ff;fill-opacity:1;stroke:#ffffff;stroke-width:2.29999995000000013;stroke-miterlimit:4;stroke-opacity:1;stroke-dasharray:none"
       inkscape:connector-curvature="0" /><path
       d="m 16.340734,38.277215 c -1.912727,0.170889 -3.41625,1.724653 -3.41625,3.639275 0,2.026612 1.680958,3.669969 3.755837,3.669969 1.752271,0 3.212497,-1.177974 3.626793,-2.764091 -1.598607,-1.174655 -2.950165,-2.728419 -3.96638,-4.545153 z"
       id="path3011"
       style="fill:#0000ff;fill-opacity:1;stroke:#ffffff;stroke-width:2.29999995000000013;stroke-miterlimit:4;stroke-opacity:1;stroke-dasharray:none"
       inkscape:connector-curvature="0" /><path
       d="m 20.375881,18.007772 c -0.291196,-1.744563 -1.828678,-3.078493 -3.69556,-3.078493 -2.074879,0 -3.755837,1.643356 -3.755837,3.669968 0,1.97601 1.601155,3.575399 3.603872,3.655037 1.006876,-1.694789 2.319381,-3.139051 3.847525,-4.246512 z"
       id="path3013"
       style="fill:#0000ff;fill-opacity:1;stroke:#ffffff;stroke-width:2.29999995000000013;stroke-miterlimit:4;stroke-opacity:1;stroke-dasharray:none"
       inkscape:connector-curvature="0" /><path
       d="m 27.567493,15.62362 c 1.619832,0 3.164955,0.340948 4.599711,0.935742 0.629086,-0.892605 1.000085,-1.971862 1.000085,-3.138221 0,-3.058584 -2.537567,-5.5389654 -5.668563,-5.5389654 -3.130146,0 -5.667713,2.4803814 -5.667713,5.5389654 0,1.18461 0.383734,2.280457 1.032345,3.180529 1.463622,-0.62134 3.04525,-0.97805 4.704135,-0.97805 z"
       id="path3015"
       style="fill:#0000ff;fill-opacity:1;stroke:#ffffff;stroke-width:2.29999995000000013;stroke-miterlimit:4;stroke-opacity:1;stroke-dasharray:none"
       inkscape:connector-curvature="0" /><g
       transform="matrix(0.8489685,0,0,0.82955893,4.2234061,5.2018707)"
       id="g3017"
       style="fill:#0000ff;fill-opacity:1;stroke:#ffffff;stroke-width:1.42992031999999991;stroke-miterlimit:4;stroke-opacity:1;stroke-dasharray:none"><path
         d="m 43.102,30.421 c 0,4.7344 -1.6452,9.2798 -4.5706,12.6275 -2.9254,3.3478 -6.8973,5.2305 -11.0344,5.2305 -4.1371,0 -8.109,-1.8827 -11.0344,-5.2305 -2.9254,-3.3477 -4.5706,-7.8931 -4.5706,-12.6275 0,-9.7966 7.0444,-17.858 15.605,-17.858 8.5606,0 15.605,8.0614 15.605,17.858 z"
         id="path3019"
         style="fill:#0000ff;fill-opacity:1;stroke:#ffffff;stroke-width:1.42992031999999991;stroke-miterlimit:4;stroke-opacity:1;stroke-dasharray:none"
         inkscape:connector-curvature="0" /></g><g
       transform="matrix(0.8489685,0,0,0.82955893,4.2234061,5.2018707)"
       id="g3021"
       style="fill:#0000ff;stroke:#ffffff;stroke-width:1.42992031999999991;stroke-miterlimit:4;stroke-opacity:1;stroke-dasharray:none"><path
         d="m 25.875,33.75 -1.542,-4.625 3.164,-2.587 3.615,2.626 -1.487,4.669 z"
         id="path3023"
         style="fill:#0000ff;stroke:#ffffff;stroke-width:1.42992031999999991;stroke-miterlimit:4;stroke-opacity:1;stroke-dasharray:none"
         inkscape:connector-curvature="0" /><path
         d="m 27.501,41.551 c -3.968,-0.16 -5.543,-2.009 -5.543,-2.009 l 3.57,-4.163 4.465,0.168 3.132,4.12 c 0,0 -2.89,1.994 -5.624,1.884 z"
         id="path3025"
         style="fill:#0000ff;stroke:#ffffff;stroke-width:1.42992031999999991;stroke-miterlimit:4;stroke-opacity:1;stroke-dasharray:none"
         inkscape:connector-curvature="0" /><path
         d="m 18.453,33.843 c -0.849,-2.968 0.172,-6.884 0.172,-6.884 l 4,2.167 1.493,4.629 -3.582,4.233 c 0,-10e-4 -1.465,-1.99 -2.083,-4.145 z"
         id="path3027"
         style="fill:#0000ff;stroke:#ffffff;stroke-width:1.42992031999999991;stroke-miterlimit:4;stroke-opacity:1;stroke-dasharray:none"
         inkscape:connector-curvature="0" /><path
         d="m 19.458,25.125 c 0,0 0.5,-1.958 3.039,-3.822 2.237,-1.643 4.465,-1.72 4.465,-1.72 l -0.037,4.981 -3.521,2.75 -3.946,-2.189 z"
         id="path3029"
         style="fill:#0000ff;stroke:#ffffff;stroke-width:1.42992031999999991;stroke-miterlimit:4;stroke-opacity:1;stroke-dasharray:none"
         inkscape:connector-curvature="0" /><path
         d="M 32.084,27.834 28.625,24.959 29,19.75 c 0,0 1.834,-0.042 3.959,1.667 2.228,1.791 3.362,4.983 3.362,4.983 l -4.237,1.434 z"
         id="path3031"
         style="fill:#0000ff;stroke:#ffffff;stroke-width:1.42992031999999991;stroke-miterlimit:4;stroke-opacity:1;stroke-dasharray:none"
         inkscape:connector-curvature="0" /><path
         d="m 31.292,34.042 1.313,-4.464 4.187,-1.536 c 0,0 0.677,2.663 -0.042,5.667 -0.54,2.256 -2.084,4.361 -2.084,4.361 l -3.374,-4.028 z"
         id="path3033"
         style="fill:#0000ff;stroke:#ffffff;stroke-width:1.42992031999999991;stroke-miterlimit:4;stroke-opacity:1;stroke-dasharray:none"
         inkscape:connector-curvature="0" /></g></g><path
     style="fill:#0000ff"
     d="M 21.135,44.342287 C 20.8875,44.30695 20.15468,44.206236 19.506511,44.118475 16.380502,43.695219 12.483109,42.029235 9.7350001,39.941531 8.6616703,39.126136 6.4749993,37.065001 6.576058,36.963942 c 0.039199,-0.0392 0.2755696,0.100634 0.5252672,0.31074 C 7.671164,37.75417 9.055013,38.28 9.7470629,38.28 c 0.3756281,0 0.7488951,0.165565 1.3068731,0.579672 5.106196,3.789598 12.170066,4.893382 18.280544,2.856474 C 35.195632,39.762351 39.993931,35.07209 42.05709,29.28 c 0.24087,-0.676214 0.566038,-1.204835 1.061092,-1.725 0.392586,-0.4125 0.888849,-1.012544 1.102806,-1.333432 0.497825,-0.746627 0.501344,-0.474209 0.01916,1.483432 -2.370636,9.624718 -10.748858,16.387011 -20.626154,16.647934 -1.115948,0.02948 -2.231497,0.02469 -2.478997,-0.01065 l 0,3e-6 z"
     id="path3069"
     inkscape:connector-curvature="0"
     transform="scale(1.2222222,1.2222222)" /><path
     style="fill:#0000ff"
     d="m 20.535,42.472337 c -2.970906,-0.330843 -5.944793,-1.431493 -8.806112,-3.259186 l -1.306112,-0.83429 0.931112,-0.313888 0.931112,-0.313888 0.975,0.586734 c 2.988577,1.798461 6.090661,2.651249 9.687535,2.663181 3.10749,0.01031 5.756487,-0.60663 8.462465,-1.970867 1.091008,-0.550039 1.63993,-0.735949 2.342011,-0.793196 0.504357,-0.04113 1.246857,-0.23044 1.65,-0.420699 0.403145,-0.190259 0.800489,-0.375505 0.882989,-0.411658 0.463962,-0.203317 -0.77114,0.860754 -1.867641,1.609018 -4.259886,2.906996 -8.762738,4.028865 -13.882359,3.458739 z"
     id="path3071"
     inkscape:connector-curvature="0"
     transform="scale(1.2222222,1.2222222)" /><path
     style="fill:#0000ff"
     d="M 4.5253504,30.689578 C 2.3575779,25.600795 2.197274,20.58288 4.0384433,15.448157 4.4709767,14.241892 5.2926484,12.61062 5.3027852,12.938048 c 0.00397,0.128177 0.1814615,0.582716 0.3944294,1.010087 l 0.3872146,0.777038 -0.4578486,1.239914 C 5.033084,17.572353 4.7620484,18.691331 4.5632687,20.355 c -0.1415302,1.184524 -0.2113716,1.391979 -0.5697852,1.692478 -0.3422381,0.286937 -0.3719943,0.365304 -0.1834834,0.483227 0.12375,0.07741 0.2962432,0.193297 0.3833184,0.257522 0.087075,0.06423 0.2676894,0.971801 0.401365,2.016836 0.1684995,1.317276 0.4299087,2.458951 0.8522751,3.722211 l 0.6092286,1.822151 -0.3207174,0.627787 c -0.1763946,0.345284 -0.3641622,0.789597 -0.4172611,0.987366 -0.079816,0.297276 -0.2171883,0.07637 -0.7928583,-1.275 z"
     id="path3073"
     inkscape:connector-curvature="0"
     transform="scale(1.2222222,1.2222222)" /><path
     style="fill:#0000ff"
     d="M 5.2393186,35.347329 C 3.9175526,33.614404 2.3795029,30.37426 1.7794449,28.058562 1.0921532,25.406217 0.90834019,21.755756 1.3308953,19.150527 1.8829987,15.746577 3.3535228,12.189155 5.269187,9.6231991 5.8135949,8.8939861 6.149656,8.7058516 5.7342991,9.3628188 5.3718862,9.9360447 5.1384425,10.961733 5.1668626,11.855981 5.1895708,12.570503 5.0956283,12.914405 4.5738449,14.026882 2.1888721,19.111804 2.1337002,25.134105 4.4224265,30.555 c 0.5053199,1.19686 0.6537833,1.757668 0.7346289,2.775 0.055727,0.70125 0.2150732,1.538488 0.3541023,1.860531 0.332052,0.769153 0.2370314,0.823962 -0.2718391,0.156798 z"
     id="path3075"
     inkscape:connector-curvature="0"
     transform="scale(1.2222222,1.2222222)" /><path
     style="fill:#0000ff"
     d="m 41.385,16.295099 c -0.4125,-0.198681 -0.8175,-0.36236 -0.9,-0.363731 -0.0825,-0.0014 -0.276032,-0.322864 -0.430068,-0.71443 C 39.900894,14.825372 39.44001,13.913439 39.030744,13.190421 38.504776,12.261231 38.250423,11.619715 38.163136,11.002185 37.936581,9.3993766 36.925725,7.9622737 35.514313,7.2364345 34.894726,6.9178025 33.442032,6.6079369 33.129705,6.7277878 33.038967,6.7626077 32.395537,6.4889332 31.699863,6.1196222 25.834999,3.0061572 18.611968,3.2810663 12.996284,6.8314819 12.37337,7.2253079 12.339971,7.2298393 11.646284,7.014638 11.255078,6.8932747 10.8,6.7728302 10.635,6.7469834 10.402481,6.7105601 10.557597,6.5409997 11.3246,5.9931689 19.087677,0.44840321 29.892625,1.236899 36.888075,7.8586745 c 2.127996,2.0143251 4.145883,5.0339665 5.011203,7.4989525 0.153952,0.438555 0.327817,0.915498 0.386367,1.059873 0.136045,0.335476 0.01617,0.319185 -0.900645,-0.122401 z"
     id="path3077"
     inkscape:connector-curvature="0"
     transform="scale(1.2222222,1.2222222)" /><path
     style="fill:#0000ff"
     d="M 44.326296,18.969344 C 44.220976,18.71508 43.762003,18.131258 43.306354,17.671961 42.625746,16.985901 42.40519,16.626888 42.070456,15.660198 41.846361,15.013025 41.343891,13.883637 40.953853,13.150445 37.885062,7.3817141 32.604924,3.6049121 26.045665,2.4868452 23.300785,2.0189631 19.05164,2.3784823 16.40248,3.3027529 14.462782,3.9794981 11.761743,5.4262553 10.845842,6.2790544 10.631806,6.4783448 10.294306,6.6665969 10.095842,6.6973922 9.8973791,6.7281874 9.4312501,6.7948511 9.0600001,6.8455336 8.6887501,6.896216 8.0884545,7.1062843 7.7260099,7.3123516 7.3635653,7.518419 7.0418489,7.6618489 7.0110845,7.6310845 6.9803202,7.6003202 7.3781157,7.1638493 7.8950747,6.6611494 13.226415,1.4768609 21.202734,-0.59010615 28.56541,1.3046805 c 5.074079,1.3058152 9.967553,4.8678644 12.849369,9.3532925 1.303485,2.028821 2.603721,5.217102 3.047471,7.472632 0.210886,1.07192 0.1405,1.506156 -0.135954,0.838739 l 0,0 z"
     id="path3079"
     inkscape:connector-curvature="0"
     transform="scale(1.2222222,1.2222222)" /><path
     style="fill:#0000ff"
     d="m 36.94354,36.700829 c 0.674568,-0.76829 1.034597,-1.557415 1.209196,-2.650357 0.106514,-0.666752 0.357341,-1.320354 0.814672,-2.122866 0.363426,-0.63773 0.818663,-1.517266 1.011637,-1.954524 0.325108,-0.73666 0.425367,-0.828926 1.365908,-1.257021 C 41.903229,28.461957 42.36,28.283013 42.36,28.318409 c 0,0.0354 -0.279024,0.721858 -0.620053,1.525473 -0.69655,1.641376 -1.540115,3.161478 -2.434032,4.386118 -0.788134,1.079719 -2.507906,3 -2.686752,3 -0.07713,0 0.06884,-0.238127 0.324377,-0.529171 z"
     id="path3081"
     inkscape:connector-curvature="0"
     transform="scale(1.2222222,1.2222222)" /></svg>