<?xml version="1.0" encoding="UTF-8" standalone="no"?>
<!-- Created with Inkscape (http://www.inkscape.org/) -->

<svg
   xmlns:dc="http://purl.org/dc/elements/1.1/"
   xmlns:cc="http://creativecommons.org/ns#"
   xmlns:rdf="http://www.w3.org/1999/02/22-rdf-syntax-ns#"
   xmlns:svg="http://www.w3.org/2000/svg"
   xmlns="http://www.w3.org/2000/svg"
   xmlns:sodipodi="http://sodipodi.sourceforge.net/DTD/sodipodi-0.dtd"
   xmlns:inkscape="http://www.inkscape.org/namespaces/inkscape"
   width="16px"
   height="16px"
   id="svg3634"
   version="1.1"
   inkscape:version="0.48.0 r9654"
   sodipodi:docname="New document 18">
  <defs
     id="defs3636" />
  <sodipodi:namedview
     id="base"
     pagecolor="#ffffff"
     bordercolor="#666666"
     borderopacity="1.0"
     inkscape:pageopacity="0.0"
     inkscape:pageshadow="2"
     inkscape:zoom="22.197802"
     inkscape:cx="8"
     inkscape:cy="12.463147"
     inkscape:current-layer="layer1"
     showgrid="true"
     inkscape:grid-bbox="true"
     inkscape:document-units="px"
     inkscape:window-width="1366"
     inkscape:window-height="701"
     inkscape:window-x="0"
     inkscape:window-y="0"
     inkscape:window-maximized="1" />
  <metadata
     id="metadata3639">
    <rdf:RDF>
      <cc:Work
         rdf:about="">
        <dc:format>image/svg+xml</dc:format>
        <dc:type
           rdf:resource="http://purl.org/dc/dcmitype/StillImage" />
        <dc:title></dc:title>
      </cc:Work>
    </rdf:RDF>
  </metadata>
  <g
     id="layer1"
     inkscape:label="Layer 1"
     inkscape:groupmode="layer">
    <rect
       style="fill:#000000"
       id="rect3644"
       width="7.2529702"
       height="8.0188122"
       x="5.1806931"
       y="3.6564355" />
    <path
       style="fill:#ffffff"
       d="m 5.2249505,7.6711386 0,-3.9868812 3.6039604,0 3.6039601,0 0,3.9868812 0,3.9868814 -3.6039601,0 -3.6039604,0 0,-3.9868814 z"
       id="path3648"
       inkscape:connector-curvature="0" />
    <path
       style="fill:none;stroke:#000000;stroke-width:1px;stroke-linecap:butt;stroke-linejoin:miter;stroke-opacity:1"
       d="M 7.3881189,4.1970296 9.9559407,4.1519801 9.2801981,3.791584 9.2351486,3.2059405 l -1.3965347,0 0.090099,0.6306931 z"
       id="path3652"
       inkscape:connector-curvature="0" />
    <path
       style="fill:#ffffff"
       d="M 6.570498,4.1729953 7.3979763,3.6182969 7.3711162,3.3613141 C 7.3563433,3.2199736 7.3310839,3.0219558 7.3149843,2.9212746 l -0.029272,-0.1830568 1.1955256,0 1.1955255,0 0.031863,0.3825135 0.031863,0.3825135 0.9970572,0.529739 0.997057,0.5297389 -0.341896,0.027806 C 11.204666,4.6058218 9.9883294,4.631801 8.6897382,4.6482601 7.391147,4.6647193 6.1968935,4.6893251 6.0358416,4.7029398 L 5.7430198,4.7276938 6.570498,4.1729953 z"
       id="path3656"
       inkscape:connector-curvature="0" />
    <text
       xml:space="preserve"
       style="font-size:18px;font-style:normal;font-variant:normal;font-weight:normal;font-stretch:normal;text-align:start;line-height:125%;letter-spacing:0px;word-spacing:0px;writing-mode:lr-tb;text-anchor:start;fill:#000000;fill-opacity:1;stroke:none;font-family:Sans;-inkscape-font-specification:Sans"
       x="-11.532673"
       y="10.458911"
       id="text3658"
       sodipodi:linespacing="125%"><tspan
         sodipodi:role="line"
         id="tspan3660"
         x="-11.532673"
         y="10.458911" /></text>
    <rect
       style="fill:#000000"
       id="rect3662"
       width="5.6311884"
       height="6.8024755"
       x="8.0188122"
       y="5.5034652" />
    <text
       xml:space="preserve"
       style="font-size:18px;font-style:normal;font-variant:normal;font-weight:normal;font-stretch:normal;text-align:start;line-height:125%;letter-spacing:0px;word-spacing:0px;writing-mode:lr-tb;text-anchor:start;fill:#ffffff;fill-opacity:1;stroke:none;font-family:Sans;-inkscape-font-specification:Sans"
       x="-15.046535"
       y="8.3415842"
       id="text3664"
       sodipodi:linespacing="125%"><tspan
         sodipodi:role="line"
         id="tspan3666"
         x="-15.046535"
         y="8.3415842" /></text>
    <path
       style="fill:#ffffff"
       d="m 8.0630693,8.8884656 0,-3.3787129 2.7930697,0 2.793069,0 0,3.3787129 0,3.3787124 -2.793069,0 -2.7930697,0 0,-3.3787124 z"
       id="path3668"
       inkscape:connector-curvature="0" />
    <text
       xml:space="preserve"
       style="font-size:1px;font-style:normal;font-variant:normal;font-weight:normal;font-stretch:normal;text-align:start;line-height:125%;letter-spacing:0px;word-spacing:0px;writing-mode:lr-tb;text-anchor:start;fill:#000000;fill-opacity:1;stroke:none;font-family:Sans;-inkscape-font-specification:Sans"
       x="-18.200001"
       y="6.9000001"
       id="text3672"
       sodipodi:linespacing="125%"><tspan
         sodipodi:role="line"
         id="tspan3674"
         x="-18.200001"
         y="6.9000001">a</tspan></text>
    <g
       transform="matrix(0.07805137,0,0,0.0811663,8.8727494,6.9573355)"
       id="g3534">
      <g
         transform="scale(0.92,0.92)"
         id="g3536">
        <path
           style="fill:#ffffff;stroke:#010101;stroke-width:3"
           inkscape:connector-curvature="0"
           id="Left"
           d="M 12.99,13.58 C 6.25,14.6 1.54,5.1 11.04,1.5 21.21,1.49 20.24,12.49 12.99,13.58 z M 17,50.37 c -0.21,10.84 -9.79,10.84 -10,0 0,0 0,-24.36 0,-24.36 0.01,-3.75 -0.58,-10.27 5.04,-10.27 4.52,0 14.97,10.11 16.12,14.17 1.08,3.83 -2.27,6.92 -6.16,6.18 -1.59,-0.3 -3.58,-1.51 -5,-2.28 0,0 0,16.56 0,16.56 z" />
        <path
           style="fill:#010101;stroke:#ffffff;stroke-width:3"
           inkscape:connector-curvature="0"
           id="Right"
           d="M 47.98,13.8 C 41.36,14.71 35.84,4.88 46.01,1.5 c 10.41,0.26 8.5,11.4 1.97,12.3 z M 30.84,29.99 c 1.14,-4.06 11.61,-14.18 16.12,-14.18 5.28,0 5.02,5.68 5.04,9.31 0,0 0,24.36 0,24.36 -0.08,10.9 -6.33,10.31 -9.15,6.59 C 40.77,53.32 41,48.85 41,45.58 c 0,0 0,-11.69 0,-11.69 -8.15,5.58 -11.2,-0.18 -10.16,-3.9 z" />
      </g>
    </g>
  </g>
</svg>
