<?xml version="1.0" encoding="UTF-8" standalone="no"?>
<!-- Created with Inkscape (http://www.inkscape.org/) -->

<svg
   xmlns:dc="http://purl.org/dc/elements/1.1/"
   xmlns:cc="http://creativecommons.org/ns#"
   xmlns:rdf="http://www.w3.org/1999/02/22-rdf-syntax-ns#"
   xmlns:svg="http://www.w3.org/2000/svg"
   xmlns="http://www.w3.org/2000/svg"
   xmlns:sodipodi="http://sodipodi.sourceforge.net/DTD/sodipodi-0.dtd"
   xmlns:inkscape="http://www.inkscape.org/namespaces/inkscape"
   version="1.1"
   width="16"
   height="16"
   id="svg3673"
   inkscape:version="0.48.0 r9654"
   sodipodi:docname="solarize.svg">
  <sodipodi:namedview
     pagecolor="#ffffff"
     bordercolor="#666666"
     borderopacity="1"
     objecttolerance="10"
     gridtolerance="10"
     guidetolerance="10"
     inkscape:pageopacity="0"
     inkscape:pageshadow="2"
     inkscape:window-width="1366"
     inkscape:window-height="701"
     id="namedview10"
     showgrid="false"
     inkscape:zoom="18.75"
     inkscape:cx="8"
     inkscape:cy="8"
     inkscape:window-x="0"
     inkscape:window-y="0"
     inkscape:window-maximized="1"
     inkscape:current-layer="svg3673" />
  <defs
     id="defs3675" />
  <metadata
     id="metadata3678">
    <rdf:RDF>
      <cc:Work
         rdf:about="">
        <dc:format>image/svg+xml</dc:format>
        <dc:type
           rdf:resource="http://purl.org/dc/dcmitype/StillImage" />
        <dc:title />
      </cc:Work>
    </rdf:RDF>
  </metadata>
  <g
     id="layer1"
     transform="matrix(1.4869847,0,0,1.4386095,-3.9854314,-3.1811151)">
    <path
       d="m 10.90198,9.2650986 a 3.1309407,3.0408416 0 1 1 -6.2618812,0 3.1309407,3.0408416 0 1 1 6.2618812,0 z"
       transform="translate(0.54059406,-1.4866337)"
       id="path3681"
       style="fill:#ff0000"
       inkscape:connector-curvature="0" />
    <path
       d="M 11.127228,10.458911 8.5891158,9.7098964 6.5332015,11.376105 6.4612368,8.7307588 4.2412659,7.2903548 6.7349011,6.4044554 7.418798,3.8480284 l 1.613116,2.09783 2.642642,-0.1395548 -1.496674,2.1824296 z"
       id="path3685"
       style="fill:#ff0000"
       inkscape:connector-curvature="0" />
    <path
       d="M 9.1000003,11.630198 7.4384394,9.5478383 4.7810775,9.7360712 6.2480683,7.5123484 5.2478782,5.0432143 7.8160893,5.7512373 9.8552997,4.0369956 9.9755507,6.6983007 12.236042,8.1079751 9.7421501,9.0447291 z"
       id="path3687"
       style="fill:#ff0000"
       inkscape:connector-curvature="0" />
    <path
       d="M 8.7838614,11.192151 8.4910396,10.824604 8.1652213,10.7955 C 7.9860213,10.77949 7.7372557,10.74189 7.6124088,10.71194 7.4282733,10.66777 7.37071,10.66881 7.3075341,10.71744 7.2647001,10.75042 7.0725433,10.906338 6.8805198,11.063921 L 6.5313861,11.350448 6.5303212,10.794704 6.5292562,10.23896 6.3457643,10.103812 C 6.2448437,10.02948 6.0928623,9.8921207 6.0080277,9.7985686 L 5.8537831,9.6284734 5.550629,9.6537106 C 5.3838943,9.6675912 5.1505488,9.6891672 5.0320834,9.7016577 L 4.8166919,9.7243676 5.1089758,9.2833964 5.4012598,8.8424258 5.313105,8.5280541 C 5.2646201,8.3551498 5.2248953,8.1422909 5.2248279,8.0550344 5.2247109,7.9035805 5.2043329,7.8832264 4.7754591,7.6061923 4.5283736,7.4465857 4.3369105,7.3053007 4.3499855,7.2922256 4.3630605,7.2791507 4.5804807,7.1951806 4.8331415,7.1056255 L 5.2925247,6.9427982 5.5015381,6.5221912 5.7105514,6.1015842 5.5119451,5.6275414 C 5.4027116,5.3668178 5.3187917,5.139493 5.3254565,5.122375 5.3321213,5.105257 5.5762848,5.1580642 5.8680421,5.2397242 L 6.39851,5.388197 6.6436594,5.2405758 C 6.7784915,5.1593841 6.9462973,5.069142 7.016561,5.0400378 7.1329846,4.9918136 7.1560028,4.9413385 7.276134,4.4708377 7.3486354,4.1868819 7.4218322,3.9545544 7.4387935,3.9545544 c 0.016961,0 0.167268,0.1795652 0.3340147,0.3990338 L 8.075984,4.7526219 8.526434,4.7800645 8.9768837,4.8075071 9.3829946,4.46866 C 9.682759,4.218545 9.7988682,4.1452058 9.8263876,4.1885946 c 0.020505,0.03233 0.037593,0.2632028 0.037972,0.513051 l 6.897e-4,0.4542694 0.2365097,0.1630385 c 0.130081,0.089671 0.324045,0.2523221 0.431032,0.3614465 l 0.194522,0.1984079 0.424909,-0.022226 c 0.2337,-0.012224 0.424909,-0.00908 0.424909,0.00698 0,0.016062 -0.09468,0.1715942 -0.210408,0.3456278 l -0.210409,0.3164248 0.09885,0.302466 c 0.05437,0.1663563 0.111679,0.4118242 0.127355,0.5454842 l 0.0285,0.2430182 0.35335,0.224907 c 0.194343,0.1236989 0.353351,0.2397655 0.353351,0.2579257 0,0.01816 -0.167246,0.093703 -0.371659,0.1678738 l -0.371658,0.1348551 -0.11775,0.3183368 c -0.114487,0.3095158 -0.308347,0.6831506 -0.425566,0.8202137 -0.04785,0.055953 -0.03221,0.1334294 0.09096,0.450495 0.08181,0.210607 0.142539,0.389868 0.134949,0.39836 -0.0076,0.0085 -0.198987,-0.03784 -0.425326,-0.102953 l -0.411526,-0.118393 -0.2562858,0.155382 c -0.1409576,0.08546 -0.342232,0.189654 -0.4472767,0.231542 -0.2055947,0.08199 -0.1835916,0.03825 -0.3508892,0.697448 -0.040873,0.161052 -0.077578,0.29604 -0.081564,0.299973 -0.00399,0.0039 -0.1390187,-0.158245 -0.3000707,-0.360396 l 0,0 z"
       id="path3693"
       style="fill:#ffff00"
       inkscape:connector-curvature="0" />
  </g>
</svg>
